<svg width="140" height="140" viewBox="0 0 140 140" fill="none" xmlns="http://www.w3.org/2000/svg">
<circle cx="70" cy="70" r="70" fill="url(#paint0_radial_2298_5733)" fill-opacity="0.4"/>
<path d="M98.1315 99.6399C113.62 85.0813 113.62 61.4772 98.1315 46.9187C82.6433 32.3601 57.532 32.3601 42.0439 46.9187C26.5557 61.4773 26.5557 85.0813 42.0439 99.6399C57.532 114.198 82.6433 114.198 98.1315 99.6399Z" fill="#C78C2D"/>
<path d="M98.1315 95.7366C113.62 81.178 113.62 57.5739 98.1315 43.0154C82.6433 28.4568 57.532 28.4568 42.0439 43.0154C26.5557 57.5739 26.5557 81.178 42.0439 95.7366C57.532 110.295 82.6433 110.295 98.1315 95.7366Z" fill="#E19F33"/>
<path d="M89.4133 95.2165C89.3409 95.2165 89.2699 95.1844 89.2252 95.1251C89.1516 95.0274 89.1753 94.8927 89.2805 94.8223C93.5139 91.996 97.0308 88.2255 99.4513 83.9186C101.951 79.4697 103.272 74.4411 103.272 69.3754C103.272 69.2556 103.376 69.1592 103.502 69.1592C103.629 69.1592 103.732 69.2568 103.732 69.3754C103.732 74.5115 102.392 79.6093 99.8588 84.1213C97.4055 88.4887 93.84 92.3111 89.5474 95.1758C89.5066 95.2029 89.4593 95.2165 89.4133 95.2165Z" fill="white"/>
<path d="M36.6783 69.5934C36.5507 69.5934 36.4482 69.4958 36.4482 69.3772C36.4482 62.4924 38.7608 55.9474 43.1362 50.4505C46.2048 46.596 50.2306 43.4014 54.7782 41.2127C59.5455 38.9178 64.6966 37.7549 70.091 37.7549C79.7451 37.7549 88.9469 41.6626 95.3352 48.4744C95.4193 48.5646 95.4101 48.7018 95.3141 48.7809C95.2182 48.86 95.0736 48.8513 94.9881 48.7611C88.6866 42.042 79.611 38.1887 70.0896 38.1887C64.7702 38.1887 59.6888 39.3355 54.9873 41.5983C50.5027 43.7573 46.5322 46.9074 43.5044 50.71C39.1894 56.1316 36.9083 62.5863 36.9083 69.3772C36.9097 69.4958 36.8058 69.5934 36.6783 69.5934Z" fill="white"/>
<path d="M49.8285 75H47.3569L51.1229 64.0909H54.0952L57.8558 75H55.3842L52.6516 66.5838H52.5664L49.8285 75ZM49.674 70.712H55.5121V72.5124H49.674V70.712ZM60.5258 75L57.4044 64.0909H59.9239L61.7297 71.6708H61.8202L63.8124 64.0909H65.9697L67.9566 71.6868H68.0525L69.8582 64.0909H72.3778L69.2563 75H67.0084L64.931 67.8675H64.8458L62.7737 75H60.5258ZM74.3939 75H71.9223L75.6883 64.0909H78.6606L82.4213 75H79.9497L77.2171 66.5838H77.1318L74.3939 75ZM74.2394 70.712H80.0775V72.5124H74.2394V70.712ZM81.9818 64.0909H84.5653L87.0528 68.7891H87.1594L89.6469 64.0909H92.2304L88.2513 71.1435V75H85.9608V71.1435L81.9818 64.0909Z" fill="white"/>
<defs>
<radialGradient id="paint0_radial_2298_5733" cx="0" cy="0" r="1" gradientUnits="userSpaceOnUse" gradientTransform="translate(70 70) rotate(90) scale(70)">
<stop stop-color="#FF9100"/>
<stop offset="1" stop-color="#FF9100" stop-opacity="0"/>
</radialGradient>
</defs>
</svg>
