<svg width="140" height="140" viewBox="0 0 140 140" fill="none" xmlns="http://www.w3.org/2000/svg">
<path d="M98.1315 96.6399C113.62 82.0813 113.62 58.4772 98.1315 43.9187C82.6433 29.3601 57.532 29.3601 42.0439 43.9187C26.5557 58.4773 26.5557 82.0813 42.0439 96.6399C57.532 111.198 82.6433 111.198 98.1315 96.6399Z" fill="#6385DB"/>
<path d="M98.1315 92.7366C113.62 78.178 113.62 54.5739 98.1315 40.0154C82.6433 25.4568 57.532 25.4568 42.0439 40.0154C26.5557 54.5739 26.5557 78.178 42.0439 92.7366C57.532 107.295 82.6433 107.295 98.1315 92.7366Z" fill="#739AF0"/>
<path d="M89.4133 92.2165C89.3409 92.2165 89.2699 92.1844 89.2252 92.1251C89.1516 92.0274 89.1753 91.8927 89.2805 91.8223C93.5139 88.996 97.0308 85.2255 99.4513 80.9186C101.951 76.4697 103.272 71.4411 103.272 66.3754C103.272 66.2556 103.376 66.1592 103.502 66.1592C103.629 66.1592 103.732 66.2568 103.732 66.3754C103.732 71.5115 102.392 76.6093 99.8588 81.1213C97.4055 85.4887 93.84 89.3111 89.5474 92.1758C89.5066 92.2029 89.4593 92.2165 89.4133 92.2165Z" fill="white"/>
<path d="M36.6783 66.5934C36.5507 66.5934 36.4482 66.4958 36.4482 66.3772C36.4482 59.4924 38.7608 52.9474 43.1362 47.4505C46.2048 43.596 50.2306 40.4014 54.7782 38.2127C59.5455 35.9178 64.6966 34.7549 70.091 34.7549C79.7451 34.7549 88.9469 38.6626 95.3352 45.4744C95.4193 45.5646 95.4101 45.7018 95.3141 45.7809C95.2182 45.86 95.0736 45.8513 94.9881 45.7611C88.6866 39.042 79.611 35.1887 70.0896 35.1887C64.7702 35.1887 59.6888 36.3355 54.9873 38.5983C50.5027 40.7573 46.5322 43.9074 43.5044 47.71C39.1894 53.1316 36.9083 59.5863 36.9083 66.3772C36.9097 66.4958 36.8058 66.5934 36.6783 66.5934Z" fill="white"/>
<circle cx="70" cy="70" r="70" fill="url(#paint0_radial_2298_5734)" fill-opacity="0.4"/>
<path d="M51.8153 72H47.9482V61.0909H51.8473C52.9446 61.0909 53.8892 61.3093 54.6811 61.7461C55.473 62.1793 56.082 62.8026 56.5082 63.6158C56.9379 64.429 57.1527 65.402 57.1527 66.5348C57.1527 67.6712 56.9379 68.6477 56.5082 69.4645C56.082 70.2812 55.4695 70.908 54.6705 71.3448C53.875 71.7816 52.9233 72 51.8153 72ZM50.2546 70.0238H51.7195C52.4013 70.0238 52.9748 69.9031 53.44 69.6616C53.9087 69.4165 54.2603 69.0384 54.4947 68.527C54.7326 68.0121 54.8516 67.348 54.8516 66.5348C54.8516 65.7287 54.7326 65.07 54.4947 64.5586C54.2603 64.0472 53.9105 63.6708 53.4453 63.4293C52.9801 63.1879 52.4066 63.0671 51.7248 63.0671H50.2546V70.0238ZM58.8612 72V61.0909H63.1652C63.9891 61.0909 64.6922 61.2383 65.2746 61.533C65.8605 61.8242 66.3062 62.2379 66.6116 62.7741C66.9205 63.3068 67.075 63.9336 67.075 64.6545C67.075 65.3789 66.9188 66.0021 66.6063 66.5241C66.2938 67.0426 65.841 67.4403 65.248 67.7173C64.6585 67.9943 63.9447 68.1328 63.1066 68.1328H60.2249V66.2791H62.7338C63.1741 66.2791 63.5399 66.2187 63.8311 66.098C64.1222 65.9773 64.3389 65.7962 64.4809 65.5547C64.6265 65.3132 64.6993 65.0131 64.6993 64.6545C64.6993 64.2923 64.6265 63.9869 64.4809 63.7383C64.3389 63.4897 64.1205 63.3015 63.8257 63.1737C63.5345 63.0423 63.167 62.9766 62.7231 62.9766H61.1677V72H58.8612ZM64.7526 67.0355L67.4639 72H64.9177L62.265 67.0355H64.7526ZM70.5853 72H68.1137L71.8797 61.0909H74.852L78.6127 72H76.1411L73.4085 63.5838H73.3232L70.5853 72ZM70.4308 67.712H76.2689V69.5124H70.4308V67.712ZM81.2827 72L78.1612 61.0909H80.6808L82.4865 68.6708H82.5771L84.5692 61.0909H86.7266L88.7134 68.6868H88.8093L90.6151 61.0909H93.1346L90.0131 72H87.7653L85.6879 64.8675H85.6026L83.5305 72H81.2827Z" fill="white"/>
<defs>
<radialGradient id="paint0_radial_2298_5734" cx="0" cy="0" r="1" gradientUnits="userSpaceOnUse" gradientTransform="translate(70 70) rotate(90) scale(70)">
<stop stop-color="#739AF0"/>
<stop offset="1" stop-color="#739AF0" stop-opacity="0"/>
</radialGradient>
</defs>
</svg>
