<svg width="148" height="149" viewBox="0 0 148 149" fill="none" xmlns="http://www.w3.org/2000/svg">
<path d="M107.131 100.984C122.62 86.4251 122.62 62.821 107.131 48.2625C91.6432 33.7039 66.532 33.7039 51.0438 48.2625C35.5556 62.821 35.5556 86.4251 51.0438 100.984C66.532 115.542 91.6432 115.542 107.131 100.984Z" fill="#B04622"/>
<path d="M107.131 97.0813C122.62 82.5227 122.62 58.9187 107.131 44.3601C91.6432 29.8016 66.532 29.8016 51.0438 44.3601C35.5556 58.9187 35.5556 82.5227 51.0438 97.0813C66.532 111.64 91.6432 111.64 107.131 97.0813Z" fill="#F2602F"/>
<path d="M97.9803 96.5613C97.908 96.5613 97.837 96.5291 97.7923 96.4698C97.7187 96.3722 97.7424 96.2375 97.8462 96.167C102.08 93.3407 105.597 89.5702 108.017 85.2634C110.516 80.8144 111.838 75.7858 111.838 70.7202C111.838 70.6003 111.942 70.5039 112.068 70.5039C112.195 70.5039 112.298 70.6015 112.298 70.7202C112.298 75.8563 110.958 80.954 108.425 85.466C105.971 89.8334 102.406 93.6558 98.1131 96.5217C98.0724 96.5477 98.0264 96.5613 97.9803 96.5613Z" fill="white"/>
<path d="M78.6564 102.344C69.6702 102.344 61.2217 99.0546 54.8676 93.0819C48.5135 87.1092 45.0137 79.1678 45.0137 70.7209C45.0137 63.8361 47.3263 57.2912 51.7017 51.7942C54.7703 47.9397 58.796 44.7451 63.3437 42.5565C68.1109 40.2615 73.2621 39.0986 78.6551 39.0986C88.3092 39.0986 97.5111 43.0063 103.899 49.8182C103.984 49.9084 103.974 50.0456 103.878 50.1247C103.782 50.2038 103.638 50.1951 103.552 50.1049C97.2507 43.3857 88.1751 39.5324 78.6538 39.5324C73.3344 39.5324 68.2529 40.6792 63.5514 42.942C59.0669 45.101 55.0964 48.2511 52.0685 52.0538C47.7536 57.4753 45.4725 63.93 45.4725 70.7209C45.4725 79.0516 48.9237 86.8842 55.191 92.7754C61.4584 98.6666 69.7899 101.911 78.6538 101.911C78.7813 101.911 78.8839 102.008 78.8839 102.127C78.8865 102.247 78.784 102.344 78.6564 102.344Z" fill="white"/>
<circle cx="74" cy="74.8418" r="74" fill="url(#paint0_radial_2298_5735)" fill-opacity="0.4"/>
<path d="M56.9482 76.8418V65.9327H59.2546V70.4338H63.9368V65.9327H66.2379V76.8418H63.9368V72.3354H59.2546V76.8418H56.9482ZM78.1644 71.3873C78.1644 72.5769 77.9389 73.589 77.4879 74.4235C77.0405 75.258 76.4297 75.8954 75.6555 76.3358C74.8849 76.7725 74.0185 76.9909 73.0561 76.9909C72.0866 76.9909 71.2166 76.7708 70.446 76.3304C69.6754 75.8901 69.0664 75.2527 68.619 74.4181C68.1715 73.5836 67.9478 72.5733 67.9478 71.3873C67.9478 70.1976 68.1715 69.1855 68.619 68.351C69.0664 67.5165 69.6754 66.8809 70.446 66.4441C71.2166 66.0037 72.0866 65.7836 73.0561 65.7836C74.0185 65.7836 74.8849 66.0037 75.6555 66.4441C76.4297 66.8809 77.0405 67.5165 77.4879 68.351C77.9389 69.1855 78.1644 70.1976 78.1644 71.3873ZM75.826 71.3873C75.826 70.6167 75.7106 69.9668 75.4798 69.4377C75.2525 68.9086 74.9311 68.5073 74.5156 68.2338C74.1001 67.9604 73.6136 67.8237 73.0561 67.8237C72.4986 67.8237 72.0121 67.9604 71.5966 68.2338C71.1811 68.5073 70.858 68.9086 70.6271 69.4377C70.3999 69.9668 70.2862 70.6167 70.2862 71.3873C70.2862 72.1578 70.3999 72.8077 70.6271 73.3368C70.858 73.8659 71.1811 74.2672 71.5966 74.5407C72.0121 74.8141 72.4986 74.9508 73.0561 74.9508C73.6136 74.9508 74.1001 74.8141 74.5156 74.5407C74.9311 74.2672 75.2525 73.8659 75.4798 73.3368C75.7106 72.8077 75.826 72.1578 75.826 71.3873ZM79.873 65.9327H82.7174L85.7217 73.2623H85.8495L88.8538 65.9327H91.6982V76.8418H89.461V69.7413H89.3705L86.5473 76.7885H85.0239L82.2007 69.7147H82.1102V76.8418H79.873V65.9327ZM93.5985 76.8418V65.9327H100.949V67.8343H95.905V70.4338H100.571V72.3354H95.905V74.9402H100.971V76.8418H93.5985Z" fill="white"/>
<defs>
<radialGradient id="paint0_radial_2298_5735" cx="0" cy="0" r="1" gradientUnits="userSpaceOnUse" gradientTransform="translate(74 74.8418) rotate(90) scale(74)">
<stop stop-color="#E18933"/>
<stop offset="0.0001" stop-color="#E18833"/>
<stop offset="1" stop-color="#BE3B31" stop-opacity="0"/>
</radialGradient>
</defs>
</svg>
