<svg width="18" height="18" viewBox="0 0 18 18" fill="none" xmlns="http://www.w3.org/2000/svg">
<g clip-path="url(#clip0_2005_5909)">
<path d="M9 0C4.01247 0 0 4.01247 0 9C0 13.9875 4.01247 18 9 18C13.9875 18 18 13.9875 18 9C18 4.01247 13.9875 0 9 0Z" fill="#2775CA"/>
<path d="M6.52483 7.5748C6.52483 8.88727 7.31233 9.33727 8.88733 9.52474C10.0123 9.67477 10.2373 9.97474 10.2373 10.4998C10.2373 11.0249 9.8623 11.3623 9.11233 11.3623C8.43733 11.3623 8.0623 11.1373 7.87483 10.5748C7.8373 10.4623 7.7248 10.3873 7.6123 10.3873H7.01237C6.86234 10.3873 6.74983 10.4998 6.74983 10.6497V10.6873C6.89986 11.5123 7.57486 12.1498 8.43733 12.2247V13.1247C8.43733 13.2748 8.54983 13.3873 8.7373 13.4248H9.2998C9.44983 13.4248 9.56233 13.3123 9.59986 13.1247V12.2623C10.7249 12.1122 11.4373 11.3623 11.4373 10.4247C11.4373 9.18724 10.6873 8.6998 9.11233 8.51224C8.0623 8.32477 7.7248 8.09977 7.7248 7.49974C7.7248 6.89971 8.24986 6.48724 8.9623 6.48724C9.93736 6.48724 10.2749 6.8998 10.3874 7.4623C10.4248 7.61224 10.5373 7.6873 10.6498 7.6873H11.2874C11.4373 7.6873 11.5498 7.5748 11.5498 7.42477V7.38724C11.3999 6.4498 10.7998 5.7748 9.56233 5.58724V4.68724C9.56233 4.5373 9.44983 4.4248 9.26236 4.38727H8.69987C8.54983 4.38727 8.43733 4.49977 8.3998 4.68724V5.58724C7.2748 5.7748 6.52483 6.5623 6.52483 7.5748Z" fill="white"/>
<path d="M10.9123 3.63756C13.8373 4.6875 15.3373 7.95 14.2497 10.8376C13.6872 12.4126 12.4497 13.6125 10.9123 14.175C10.7622 14.25 10.6873 14.3625 10.6873 14.5501V15.075C10.6873 15.2251 10.7622 15.3376 10.9123 15.375C10.9498 15.375 11.0248 15.375 11.0623 15.3376C14.6248 14.2126 16.5748 10.425 15.4498 6.86253C14.7748 4.76256 13.1623 3.15003 11.0623 2.47503C10.9123 2.40006 10.7622 2.47503 10.7248 2.62506C10.6873 2.6625 10.6873 2.70003 10.6873 2.775V3.30006C10.6873 3.41256 10.7998 3.5625 10.9123 3.63756ZM6.93723 15.3376C7.08726 15.4125 7.23729 15.3376 7.27473 15.1875C7.31226 15.15 7.31226 15.1126 7.31226 15.0375V14.5125C7.31226 14.3625 7.19976 14.2126 7.08726 14.1375C4.16226 13.0876 2.66223 9.82506 3.74979 6.9375C4.31229 5.3625 5.54979 4.16253 7.08726 3.60003C7.23729 3.52506 7.31226 3.41256 7.31226 3.225V2.70003C7.31226 2.55 7.23729 2.4375 7.08726 2.40006C7.04973 2.40006 6.97476 2.40006 6.93723 2.4375C3.37476 3.5625 1.42473 7.35006 2.54973 10.9125C3.22473 13.05 4.87479 14.6626 6.93723 15.3376Z" fill="white"/>
</g>
<defs>
<clipPath id="clip0_2005_5909">
<rect width="18" height="18" fill="white" transform="translate(18 18) rotate(-180)"/>
</clipPath>
</defs>
</svg>
