<svg width="246" height="236" viewBox="0 0 246 236" fill="none" xmlns="http://www.w3.org/2000/svg">
<g clip-path="url(#clip0_2429_5576)">
<path d="M167.267 53.4796V47.5714C171.003 48.0099 174.586 49.3108 177.733 51.3715C180.881 53.4321 183.507 56.1962 185.404 59.4458C187.302 62.6954 188.419 66.3416 188.669 70.0971C188.918 73.8526 188.292 77.6146 186.84 81.0867L181.709 78.1224C182.663 75.5593 183.035 72.8156 182.798 70.0906C182.561 67.3656 181.721 64.7276 180.338 62.3681C178.955 60.0085 177.065 57.9867 174.804 56.4492C172.543 54.9118 169.969 53.8974 167.267 53.4796ZM63.913 78.3178C62.9248 75.7506 62.5234 72.9945 62.7382 70.2518C62.953 67.509 63.7786 64.8492 65.1545 62.4673C66.5303 60.0855 68.4215 58.042 70.6894 56.4868C72.9572 54.9316 75.5442 53.9041 78.2605 53.4796V47.5714C74.5085 48.0157 70.9119 49.3298 67.7564 51.4092C64.601 53.4886 61.9739 56.276 60.0839 59.5497C58.194 62.8234 57.0933 66.4932 56.8694 70.2673C56.6454 74.0414 57.3045 77.8158 58.7941 81.2903L63.913 78.3178ZM122.768 162.247C120.028 162.246 117.324 161.633 114.851 160.453C112.379 159.272 110.201 157.553 108.477 155.422L103.355 158.395C105.626 161.43 108.576 163.891 111.968 165.58C115.361 167.268 119.101 168.139 122.89 168.12C126.68 168.102 130.412 167.196 133.788 165.475C137.164 163.753 140.09 161.264 142.332 158.207L137.209 155.251C135.487 157.433 133.292 159.196 130.791 160.408C128.29 161.619 125.547 162.248 122.768 162.247ZM206.327 99.3774V144.029L167.67 166.355L129.014 144.029V126.492C125.119 125.076 120.859 125.021 116.929 126.337V144.029L78.3256 166.355L39.6694 144.029V99.3774L61.8988 86.5348L61.7482 86.3516L66.8793 83.3873C66.9282 83.4484 66.9811 83.5054 67.034 83.5664L78.3134 77.0515L93.1371 85.6024C96.143 83.0054 98.2273 79.504 99.0779 75.6223L84.1159 66.9778V53.5162V47.5999V22.3259L122.768 0L161.424 22.3259V66.9778L146.462 75.6141C147.33 79.5898 149.484 83.168 152.59 85.7937L167.683 77.0719L178.669 83.4117C178.718 83.3506 178.775 83.2936 178.824 83.2326L183.951 86.1928C183.902 86.2579 183.849 86.3149 183.804 86.3801L206.327 99.3774ZM158.486 89.1245C161.029 89.9983 163.732 90.3014 166.404 90.0121C169.076 89.7229 171.652 88.8485 173.949 87.451L167.646 83.8189L158.486 89.1245ZM155.544 63.3253V55.5685C153.115 56.9158 151.02 58.794 149.416 61.0633C147.812 63.3326 146.74 65.9346 146.279 68.6757L155.544 63.3253ZM89.9673 49.0739C94.5024 50.8579 98.3958 53.9669 101.141 57.9961C103.885 62.0253 105.354 66.7881 105.357 71.6644V72.1816L122.768 82.2512L140.196 72.1816V71.6644C140.198 66.7902 141.665 62.0294 144.408 58.0011C147.15 53.9729 151.041 50.8637 155.573 49.0779V25.4368L122.768 6.51495L89.9795 25.4368L89.9673 49.0739ZM89.9673 63.3253L99.2529 68.6879C98.7953 65.9405 97.7222 63.3323 96.1141 61.0588C94.506 58.7854 92.4046 56.9056 89.9673 55.5603V63.3253ZM78.3256 83.8189L71.8151 87.5813C74.1396 88.9493 76.7365 89.7884 79.4215 90.0389C82.1065 90.2894 84.8137 89.9453 87.3509 89.0309L78.3256 83.8189ZM78.3256 159.588L98.8297 147.743C98.0155 142.783 98.7595 137.693 100.959 133.175C103.159 128.657 106.706 124.933 111.11 122.518V102.761L93.4911 92.5815C89.2928 95.0738 84.4405 96.24 79.569 95.9276C74.6975 95.6152 70.0337 93.8388 66.1876 90.8306L45.537 102.761V140.629L78.3256 159.588ZM111.11 129.574C109.001 131.301 107.302 133.476 106.135 135.941C104.968 138.405 104.363 141.098 104.364 143.826V144.55L111.086 140.662L111.11 129.574ZM129.051 120.351V99.3774L147.301 88.8436C144.467 86.0046 142.381 82.5071 141.229 78.6639L122.797 89.3118L104.384 78.6599C103.258 82.4319 101.228 85.8718 98.4716 88.6807L116.998 99.3774V120.237C120.972 119.255 125.129 119.294 129.083 120.351H129.051ZM134.886 140.646L141.164 144.274V143.818C141.165 141.194 140.604 138.601 139.518 136.213C138.433 133.825 136.849 131.697 134.874 129.973L134.886 140.646ZM200.463 102.777L179.564 90.684C175.752 93.7287 171.111 95.5518 166.247 95.9151C161.383 96.2783 156.523 95.1647 152.301 92.72L134.886 102.761V122.782C139.122 125.227 142.522 128.895 144.639 133.306C146.757 137.717 147.493 142.666 146.751 147.503L167.674 159.588L200.463 140.646V102.777Z" fill="url(#paint0_linear_2429_5576)"/>
<path d="M38.4529 224.502C38.4573 224.979 38.3674 225.453 38.1884 225.895C38.0125 226.305 37.7565 226.676 37.4357 226.986C36.7661 227.633 35.872 227.995 34.9413 227.996H19.2225C17.7097 227.993 16.2014 227.832 14.7221 227.515C13.1981 227.191 11.7177 226.688 10.3112 226.017C8.87359 225.339 7.527 224.483 6.30316 223.468C5.03035 222.407 3.92229 221.162 3.01535 219.775C2.04538 218.271 1.30353 216.631 0.813977 214.909C0.25302 212.914 -0.0210059 210.849 0.000162289 208.777V189.521H6.97456V208.777C6.92758 210.477 7.20374 212.171 7.78837 213.769C8.27311 215.022 8.98338 216.176 9.88395 217.173C10.6708 218.036 11.6015 218.755 12.6346 219.298C13.5415 219.78 14.4961 220.164 15.483 220.447C16.2624 220.672 17.0604 220.827 17.8675 220.911C18.5551 220.972 19.0068 221.005 19.2265 221.005H31.4785V189.505H38.4529V224.502Z" fill="white"/>
<path d="M58.5175 227.992H55.4087C54.3208 227.98 53.2405 227.808 52.2022 227.483C51.0478 227.133 49.9716 226.563 49.0324 225.805C48.0115 224.98 47.179 223.946 46.591 222.772C45.9068 221.347 45.576 219.779 45.6266 218.199V186.716H52.601V218.203C52.587 218.581 52.6522 218.957 52.7924 219.307C52.9326 219.658 53.1446 219.975 53.4148 220.239C53.9602 220.748 54.6834 221.023 55.429 221.005H58.5378L58.5175 227.992Z" fill="white"/>
<path d="M88.3234 205.959H76.1487V227.992H69.0888V205.959H60.0229V198.984H69.0888V189.505H76.1487V198.984H88.3274L88.3234 205.959Z" fill="white"/>
<path d="M99.9894 193.023H93.019V186.716H99.9894V193.023ZM99.9894 228H93.019V198.984H99.9894V228Z" fill="white"/>
<path d="M145.836 219.543C145.823 220.481 145.674 221.412 145.392 222.308C145.079 223.35 144.557 224.317 143.857 225.151C143.158 225.984 142.295 226.665 141.323 227.153C140.095 227.75 138.741 228.041 137.376 228H110.927C110.45 228.005 109.976 227.914 109.535 227.731C109.118 227.563 108.738 227.312 108.42 226.994C108.101 226.675 107.849 226.296 107.68 225.879C107.498 225.436 107.406 224.961 107.411 224.482V193.023C107.406 192.553 107.497 192.087 107.68 191.655C107.852 191.235 108.102 190.853 108.416 190.527C108.732 190.202 109.112 189.945 109.531 189.774C109.972 189.593 110.443 189.502 110.919 189.505H134.255C135.194 189.52 136.125 189.676 137.018 189.969C138.017 190.282 138.95 190.778 139.769 191.431C140.653 192.143 141.375 193.036 141.889 194.049C142.483 195.279 142.774 196.633 142.735 197.999V199.31C142.715 200.662 142.507 202.005 142.117 203.3C141.691 204.751 141.02 206.117 140.131 207.339C140.933 207.833 141.676 208.418 142.344 209.082C143.05 209.787 143.659 210.582 144.155 211.448C144.693 212.401 145.103 213.421 145.376 214.481C145.694 215.699 145.85 216.953 145.84 218.211L145.836 219.543ZM138.861 218.203C138.873 217.369 138.728 216.541 138.434 215.76C138.157 215.066 137.742 214.435 137.213 213.907C136.68 213.378 136.039 212.969 135.333 212.71C134.543 212.425 133.707 212.287 132.867 212.303H117.161V205.238H129.742C130.582 205.254 131.418 205.116 132.208 204.831C132.91 204.574 133.548 204.167 134.076 203.638C134.605 203.11 135.012 202.472 135.268 201.769C135.552 200.986 135.69 200.158 135.675 199.326V198.015C135.675 197.013 135.192 196.512 134.227 196.512H114.341V221.045H137.372C137.527 221.045 137.681 221.045 137.836 221.017C138.006 221.001 138.17 220.947 138.316 220.858C138.482 220.741 138.613 220.58 138.694 220.394C138.813 220.113 138.869 219.81 138.857 219.506L138.861 218.203Z" fill="white"/>
<path d="M182.319 208.589C182.304 209.653 182.131 210.708 181.807 211.721C181.459 212.853 180.899 213.908 180.159 214.832C179.346 215.832 178.333 216.651 177.184 217.234C175.793 217.918 174.257 218.25 172.708 218.203H160.135V211.562H172.712C173.12 211.586 173.529 211.52 173.909 211.369C174.289 211.219 174.632 210.987 174.914 210.691C175.437 210.097 175.716 209.328 175.695 208.537C175.715 208.135 175.648 207.734 175.497 207.362C175.345 206.99 175.114 206.656 174.82 206.383C174.243 205.862 173.488 205.584 172.712 205.605H160.135C159.726 205.58 159.317 205.645 158.937 205.795C158.557 205.946 158.214 206.178 157.933 206.476C157.413 207.071 157.135 207.84 157.156 208.63V218.395C157.133 218.799 157.199 219.203 157.35 219.579C157.5 219.954 157.731 220.292 158.027 220.569C158.62 221.092 159.389 221.369 160.179 221.347H172.696V228.012H160.118C159.057 228 158.004 227.829 156.993 227.503C155.86 227.157 154.804 226.597 153.88 225.854C152.884 225.042 152.07 224.029 151.492 222.882C150.811 221.489 150.479 219.952 150.523 218.403V208.589C150.541 207.528 150.714 206.474 151.036 205.462C151.384 204.33 151.943 203.275 152.684 202.351C153.498 201.35 154.513 200.53 155.663 199.945C157.053 199.262 158.591 198.932 160.139 198.984H172.72C173.782 198.999 174.835 199.172 175.845 199.497C177.029 199.859 178.126 200.457 179.072 201.256C180.018 202.054 180.791 203.037 181.347 204.143C182.03 205.523 182.364 207.05 182.319 208.589Z" fill="white"/>
<path d="M213.378 205.959H201.199V227.992H194.148V205.959H185.086V198.984H194.156V189.505H201.212V198.984H213.39L213.378 205.959Z" fill="white"/>
<path d="M246 218.203C246.011 219.297 245.855 220.386 245.536 221.432C245.256 222.327 244.845 223.175 244.315 223.949C243.835 224.653 243.247 225.278 242.574 225.801C241.931 226.301 241.23 226.721 240.486 227.051C239.13 227.654 237.665 227.975 236.181 227.996H217.309V221.021H236.145C236.532 221.05 236.921 221.001 237.289 220.877C237.658 220.753 237.997 220.557 238.289 220.3C238.544 220.019 238.739 219.69 238.864 219.332C238.988 218.974 239.039 218.594 239.013 218.215C238.924 216.359 237.985 215.43 236.197 215.43H225.386C224.034 215.469 222.692 215.19 221.467 214.616C220.466 214.133 219.575 213.448 218.851 212.604C218.203 211.839 217.712 210.954 217.406 209.998C216.706 207.842 216.851 205.5 217.813 203.447C218.315 202.443 219.027 201.56 219.901 200.857C220.713 200.209 221.641 199.723 222.635 199.424C223.529 199.139 224.46 198.989 225.398 198.98H242.517V205.955H225.455C225.168 205.947 224.882 205.988 224.609 206.077C224.426 206.138 224.265 206.249 224.145 206.399C224.048 206.523 223.986 206.671 223.966 206.826C223.966 206.977 223.941 207.124 223.937 207.27C223.942 207.503 223.998 207.733 224.1 207.942C224.174 208.091 224.29 208.216 224.434 208.3C224.578 208.373 224.736 208.415 224.898 208.423C225.077 208.423 225.235 208.423 225.394 208.423H236.206C237.78 208.376 239.342 208.707 240.763 209.388C241.938 209.973 242.973 210.806 243.794 211.831C244.547 212.779 245.117 213.859 245.475 215.015C245.804 216.046 245.981 217.121 246 218.203Z" fill="white"/>
</g>
<defs>
<linearGradient id="paint0_linear_2429_5576" x1="39.6694" y1="84.0591" x2="206.327" y2="84.0591" gradientUnits="userSpaceOnUse">
<stop stop-color="#E28933"/>
<stop offset="1" stop-color="#BD3B32"/>
</linearGradient>
<clipPath id="clip0_2429_5576">
<rect width="246" height="236" fill="white"/>
</clipPath>
</defs>
</svg>
