<svg width="16" height="16" viewBox="0 0 16 16" fill="none" xmlns="http://www.w3.org/2000/svg">
<path d="M8 16C12.4183 16 16 12.4183 16 8C16 3.58172 12.4183 0 8 0C3.58172 0 0 3.58172 0 8C0 12.4183 3.58172 16 8 16Z" fill="#478CF7"/>
<path d="M13.2937 2.00244C14.5397 3.41298 15.2962 5.26603 15.2962 7.29608C15.2962 11.7144 11.7145 15.2961 7.2962 15.2961C5.26615 15.2961 3.41311 14.5395 2.00256 13.2935C3.46843 14.953 5.6118 15.9999 8.00003 15.9999C12.4183 15.9999 16 12.4182 16 7.99991C16 5.61168 14.9531 3.46831 13.2937 2.00244Z" fill="#377DE2"/>
<path d="M13.4777 2.17041C14.8233 3.60186 15.648 5.52859 15.648 7.64824C15.648 12.0665 12.0663 15.6482 7.64799 15.6482C5.52841 15.6482 3.60161 14.8236 2.17017 13.478C3.62941 15.0303 5.70127 16.0002 7.99991 16.0002C12.4182 16.0002 15.9999 12.4184 15.9999 8.00015C15.9999 5.70152 15.0301 3.62966 13.4777 2.17041Z" fill="#2266D3"/>
<path d="M2.64168 13.4993C2.60437 13.4993 2.56848 13.4845 2.54244 13.4578C2.51569 13.4317 2.50091 13.3958 2.50091 13.3585C2.50091 13.3212 2.51569 13.2853 2.54244 13.2593C2.59522 13.2058 2.68813 13.2058 2.74162 13.2593C2.76766 13.2853 2.78244 13.3212 2.78244 13.3585C2.78244 13.3958 2.76766 13.4317 2.74162 13.4578C2.71487 13.4845 2.67968 13.4993 2.64168 13.4993ZM2.25809 13.0868C2.21727 13.0868 2.17856 13.0692 2.15181 13.0383C1.54863 12.3408 1.08129 11.5518 0.763158 10.6952C0.443619 9.83586 0.281739 8.92862 0.281739 8.00027C0.281035 5.93876 1.0841 4.00041 2.54244 2.54278C3.20685 1.87767 3.97191 1.34698 4.81651 0.9648C4.98824 0.886675 5.16701 0.813477 5.34719 0.747317C5.41898 0.721275 5.50204 0.76069 5.52808 0.831776C5.54075 0.866968 5.53934 0.904975 5.52315 0.939462C5.50767 0.973246 5.47951 0.999288 5.44362 1.01196C5.27259 1.0746 5.10085 1.14498 4.93264 1.22099C4.11901 1.5898 3.3814 2.10148 2.74162 2.74126C1.33678 4.14611 0.56327 6.01407 0.56327 8.00027C0.56327 9.78518 1.20305 11.5096 2.36437 12.8539C2.41575 12.913 2.40871 13.0017 2.35029 13.0524C2.32495 13.0749 2.29187 13.0868 2.25809 13.0868Z" fill="#5E9CF7"/>
<path d="M2.42117 3.82478L2.77527 3.47069C2.78899 3.45696 2.80764 3.44922 2.82707 3.44922H3.40343C3.42286 3.44922 3.44151 3.45696 3.45523 3.47069L3.67314 3.68859C3.68686 3.70232 3.70552 3.71006 3.72494 3.71006H6.97649C6.99591 3.71006 7.01457 3.7178 7.02829 3.73152L7.18736 3.89059C7.20108 3.90431 7.21973 3.91206 7.23916 3.91206H7.55215C7.59262 3.91206 7.62542 3.94486 7.62542 3.98533C7.62542 4.0258 7.65822 4.05859 7.69869 4.05859H9.84783C9.86725 4.05859 9.88591 4.05085 9.89963 4.03713L10.0895 3.8473C10.1181 3.81866 10.1645 3.81866 10.1931 3.8473L10.3075 3.96168L10.5399 4.19408C10.5536 4.20781 10.5614 4.22646 10.5614 4.24588V4.46541C10.5614 4.50588 10.5286 4.53868 10.4881 4.53868H10.3517C10.3323 4.53868 10.3136 4.54642 10.2999 4.56014L9.9135 4.94654C9.89977 4.96027 9.89203 4.97892 9.89203 4.99835V5.13616C9.89203 5.15558 9.88429 5.17423 9.87056 5.18796L9.77076 5.28776C9.74211 5.31641 9.74211 5.36279 9.77076 5.39143L9.79209 5.41276C9.80581 5.42649 9.82446 5.43423 9.84389 5.43423H9.93412C9.97459 5.43423 10.0074 5.46703 10.0074 5.5075V5.73948C10.0074 5.77995 10.0402 5.81275 10.0807 5.81275H10.4848C10.5042 5.81275 10.5229 5.82049 10.5366 5.83421L10.6506 5.94823C10.6643 5.96196 10.683 5.9697 10.7024 5.9697H11.0419C11.0824 5.9697 11.1152 6.0025 11.1152 6.04297V6.45633C11.1152 6.47575 11.123 6.4944 11.1367 6.50813L11.3311 6.7026C11.3598 6.73124 11.4062 6.73124 11.4348 6.7026L11.5555 6.58196C11.5692 6.56824 11.5769 6.54958 11.5769 6.53016V6.04614C11.5769 6.02671 11.5847 6.00806 11.5984 5.99433L11.8509 5.7418C11.8647 5.72808 11.8724 5.70942 11.8724 5.69V4.97209C11.8724 4.93162 11.9052 4.89882 11.9457 4.89882H12.1652C12.1846 4.89882 12.2033 4.90657 12.217 4.92029L12.4695 5.17283C12.4832 5.18655 12.491 5.2052 12.491 5.22463V5.46857C12.491 5.488 12.4987 5.50665 12.5125 5.52038L12.6469 5.65481C12.6755 5.68345 12.7219 5.68345 12.7506 5.65481L12.9912 5.41417C13.0049 5.40044 13.0236 5.3927 13.043 5.3927H13.2177C13.2371 5.3927 13.2558 5.40044 13.2695 5.41417L13.4135 5.55817C13.4272 5.5719 13.435 5.59055 13.435 5.60997V5.94859C13.435 5.96801 13.4427 5.98666 13.4564 6.00039L13.7632 6.30712C13.7769 6.32084 13.7846 6.33949 13.7846 6.35892V6.52094C13.7846 6.54036 13.7769 6.55902 13.7632 6.57274L13.5747 6.76123C13.5609 6.77495 13.5423 6.78269 13.5229 6.78269H12.8781C12.8376 6.78269 12.8048 6.81549 12.8048 6.85596V7.57323C12.8048 7.59266 12.7971 7.61131 12.7834 7.62504L12.4569 7.95154C12.4431 7.96527 12.4354 7.98392 12.4354 8.00334V8.07527C12.4354 8.11575 12.4026 8.14854 12.3621 8.14854H11.8625C11.8221 8.14854 11.7893 8.18134 11.7893 8.22181V9.09681C11.7893 9.11624 11.7815 9.13489 11.7678 9.14861L11.2753 9.64115C11.2615 9.65488 11.2538 9.67353 11.2538 9.69296V9.94014C11.2538 9.98061 11.221 10.0134 11.1805 10.0134H9.77006C9.75063 10.0134 9.73198 10.0212 9.71825 10.0349L9.40111 10.352C9.38738 10.3657 9.37964 10.3844 9.37964 10.4038V11.3495C9.37964 11.3689 9.38738 11.3876 9.40111 11.4013L9.81517 11.8154C9.8289 11.8291 9.84755 11.8368 9.86697 11.8368H10.2204C10.2608 11.8368 10.2936 11.804 10.2936 11.7635V11.4623C10.2936 11.4218 10.3264 11.389 10.3669 11.389H10.5619C10.6024 11.389 10.6352 11.4218 10.6352 11.4623V12.1374C10.6352 12.1779 10.668 12.2107 10.7085 12.2107H10.9497C10.9901 12.2107 11.0229 12.2435 11.0229 12.284V13.0667C11.0229 13.0861 11.0307 13.1048 11.0444 13.1185L11.1907 13.2648C11.2045 13.2785 11.2231 13.2863 11.2425 13.2863H11.559C11.5994 13.2863 11.6322 13.3191 11.6322 13.3596V13.5038C11.6322 13.5443 11.5994 13.5771 11.559 13.5771H11.0994C11.08 13.5771 11.0614 13.5694 11.0476 13.5556L10.7812 13.2892C10.7675 13.2755 10.7598 13.2569 10.7598 13.2374V13.0258C10.7598 13.0064 10.752 12.9877 10.7383 12.974L10.2758 12.5114C10.262 12.4977 10.2434 12.49 10.224 12.49H10.1083C10.0678 12.49 10.035 12.4572 10.035 12.4167V12.2378C10.035 12.1973 10.0022 12.1645 9.96178 12.1645H9.42835C9.40892 12.1645 9.39027 12.1568 9.37655 12.1431L8.8101 11.5766C8.79638 11.5629 8.78864 11.5442 8.78864 11.5248V11.1793C8.78864 11.1599 8.78089 11.1412 8.76717 11.1275L8.06024 10.4206C8.04652 10.4068 8.03878 10.3882 8.03878 10.3688V10.0252C8.03878 10.0058 8.03104 9.98716 8.01731 9.97343L6.75021 8.70633C6.73648 8.6926 6.72874 8.67395 6.72874 8.65453V6.91382C6.72874 6.89439 6.721 6.87574 6.70727 6.86201L5.09818 5.25313C5.08446 5.23941 5.06581 5.23167 5.04638 5.23167H4.51668C4.49725 5.23167 4.4786 5.22392 4.46488 5.2102L4.24901 4.99433C4.23529 4.98061 4.21664 4.97287 4.19721 4.97287H4.11648C4.07601 4.97287 4.04321 5.00567 4.04321 5.04614V5.21323C4.04321 5.2537 4.01041 5.28649 3.96994 5.28649H3.56257C3.5221 5.28649 3.4893 5.31929 3.4893 5.35976V5.37018C3.4893 5.41065 3.4565 5.44345 3.41603 5.44345H2.69461C2.65414 5.44345 2.62134 5.41065 2.62134 5.37018V5.23976C2.62134 5.19929 2.58854 5.16649 2.54807 5.16649H2.28836C2.24789 5.16649 2.21509 5.13369 2.21509 5.09322V4.75046C2.21509 4.70999 2.24789 4.67719 2.28836 4.67719H2.32643C2.3669 4.67719 2.3997 4.64439 2.3997 4.60392V3.87665C2.3997 3.85723 2.40744 3.83858 2.42117 3.82478Z" fill="white"/>
<path d="M10.967 3.68925H11.3467C11.3872 3.68925 11.42 3.65645 11.42 3.61598V3.52251C11.42 3.48204 11.4528 3.44924 11.4932 3.44924H11.5835C11.6029 3.44924 11.6215 3.45698 11.6353 3.47071L12.1648 4.0002C12.1785 4.01392 12.1862 4.03257 12.1862 4.052V4.13899C12.1862 4.15842 12.1785 4.17707 12.1648 4.19079L12.0784 4.27715C12.0647 4.29088 12.046 4.29862 12.0266 4.29862H11.7147C11.6743 4.29862 11.6415 4.33142 11.6415 4.37189V4.48387C11.6415 4.52434 11.6743 4.55714 11.7147 4.55714H12.1189C12.1383 4.55714 12.1569 4.56488 12.1707 4.5786L12.3816 4.78954C12.3953 4.80327 12.414 4.81101 12.4334 4.81101H12.9252C12.9657 4.81101 12.9985 4.77821 12.9985 4.73774V4.58747C12.9985 4.56805 12.9908 4.5494 12.977 4.53567L12.7312 4.28982C12.685 4.24365 12.7178 4.16475 12.783 4.16475H12.9898C13.0303 4.16475 13.0631 4.13195 13.0631 4.09148V3.96564C13.0631 3.92517 13.0303 3.89237 12.9898 3.89237H12.7859C12.7454 3.89237 12.7126 3.85957 12.7126 3.8191V3.5779C12.7126 3.53743 12.6798 3.50463 12.6393 3.50463H12.2814C12.262 3.50463 12.2433 3.49689 12.2296 3.48317L11.8709 3.12449C11.8572 3.11077 11.8385 3.10303 11.8191 3.10303H10.9672C10.9267 3.10303 10.8939 3.13583 10.8939 3.1763V3.61598C10.8937 3.65645 10.9265 3.68925 10.967 3.68925Z" fill="white"/>
</svg>
