<svg width="16" height="16" viewBox="0 0 16 16" fill="none" xmlns="http://www.w3.org/2000/svg">
<g clip-path="url(#clip0_3224_8133)">
<path d="M0.467957 5.33367C1.93789 1.17133 6.50343 -1.01164 10.6658 0.4583C14.8282 1.92821 17.011 6.49433 15.5411 10.6567C14.627 13.245 12.5154 15.0683 10.0472 15.7236C3.8718 17.3684 -1.6692 11.3854 0.467957 5.33367Z" fill="#5AAAE7"/>
<path d="M10.505 15.5873C10.354 15.6373 10.2013 15.6828 10.0474 15.7237C3.87177 17.3684 -1.66908 11.3853 0.467893 5.33356C1.92077 1.21912 6.39899 -0.961345 10.5223 0.409186C8.26143 1.16159 6.35946 2.9129 5.50439 5.33359C3.92502 9.80625 6.53955 14.2417 10.505 15.5873Z" fill="#3D9AE2"/>
<path d="M13.5421 6.76678L12.585 11.0008C12.4415 11.6336 12.0255 12.1703 11.4486 12.4674L9.56359 13.4352C9.07919 13.6843 8.51538 13.2816 8.59381 12.7427L8.91903 10.5151C9.13213 9.05475 8.66834 8.05359 8.60231 7.74144C7.91069 5.40381 5.71619 5.01309 5.64266 4.97069L3.47691 4.31044C2.99053 4.16172 2.7245 3.63875 2.8915 3.15828L3.505 1.38869C5.06466 0.321531 6.94334 -0.146032 8.82522 0.043687L9.09063 0.567312C9.16056 0.705562 9.18834 0.853968 9.17856 0.997781C9.15863 1.28575 8.989 1.55506 8.70984 1.68941L8.08131 1.99078C7.56228 2.24016 7.42369 2.91547 7.80316 3.34919C7.99013 3.50544 9.16975 5.34203 11.7362 5.64437L12.8406 5.77478C13.3221 5.83166 13.6489 6.29316 13.5421 6.76678Z" fill="#A4E276"/>
<path d="M9.17856 0.99778C7.62894 1.85219 6.35584 3.22169 5.64266 4.97069L3.47691 4.31044C2.99053 4.16172 2.7245 3.63875 2.8915 3.15828L3.505 1.38869C5.00588 0.36178 6.87581 -0.152813 8.82522 0.0437178L9.09063 0.567343C9.16056 0.705593 9.18834 0.853968 9.17856 0.99778Z" fill="#91DC5A"/>
<path d="M7.02003 14.7545C7.01907 15.1563 6.80463 15.2311 6.55232 15.4851C6.43957 15.5988 6.31632 15.7018 6.1846 15.793C2.7281 14.9781 0.106065 11.8563 0.00378418 8.23673C0.844128 8.22691 1.5995 8.52435 2.43232 7.28591C2.63594 6.98291 2.73597 6.59332 3.04222 6.35666C3.34553 6.12198 3.6041 6.07001 3.98128 6.14551C4.72944 6.29554 5.46816 6.80248 5.81691 7.48888C6.03688 7.92229 6.25457 8.73157 6.11338 9.20585C6.01435 9.53795 5.81463 9.82948 5.66003 10.1364C5.23544 10.9784 4.97363 12.1364 5.62603 12.9029C5.9395 13.2713 6.36472 13.5321 6.67491 13.9034C6.86869 14.1352 7.02135 14.4466 7.02003 14.7545Z" fill="#91DC5A"/>
<path d="M6.1134 9.20554C6.01437 9.53763 5.81465 9.82916 5.66006 10.1361C5.59078 10.2734 5.52606 10.4188 5.46853 10.5699C5.05212 9.3677 4.91909 8.0462 5.14984 6.69238C5.42765 6.91104 5.66137 7.18201 5.81696 7.4886C6.0369 7.92198 6.25459 8.73126 6.1134 9.20554Z" fill="#A4E276"/>
</g>
<defs>
<clipPath id="clip0_3224_8133">
<rect width="16" height="16" fill="white"/>
</clipPath>
</defs>
</svg>
