<svg width="16" height="16" viewBox="0 0 16 16" fill="none" xmlns="http://www.w3.org/2000/svg">
<g clip-path="url(#clip0_3222_7132)">
<path d="M0.497803 10.782C1.62802 13.8287 4.56002 15.9998 8.00002 15.9998C11.44 15.9998 14.372 13.8287 15.5022 10.782L8.00002 10.0869L0.497803 10.782Z" fill="#FFDA44"/>
<path d="M8.00002 0C4.56002 0 1.62802 2.17111 0.497803 5.21778L8.00002 5.91289L15.5022 5.21733C14.372 2.17111 11.44 0 8.00002 0Z" fill="#3D3D3D"/>
<path d="M0.497782 5.21773C0.167678 6.10813 -0.000889746 7.05031 3.96464e-06 7.99995C-0.000942635 8.94973 0.167626 9.89208 0.497782 10.7826H15.5022C15.8324 9.89208 16.0009 8.94973 16 7.99995C16.0009 7.05017 15.8324 6.10786 15.5022 5.21729L0.497782 5.21773Z" fill="#D80027"/>
</g>
<defs>
<clipPath id="clip0_3222_7132">
<rect width="16" height="16" fill="white"/>
</clipPath>
</defs>
</svg>
