<svg width="16" height="16" viewBox="0 0 16 16" fill="none" xmlns="http://www.w3.org/2000/svg">
<g clip-path="url(#clip0_3281_6968)">
<path d="M10.6671 0.457031L9.73352 3.04549C10.5953 5.88934 10.5953 10.1103 9.73352 12.9543L10.6671 15.5425C13.7738 14.4439 16 11.4826 16 7.99958C16 4.51712 13.7738 1.55562 10.6671 0.457031Z" fill="#E63026"/>
<path d="M10.6671 3.04557V0.457115C9.83279 0.162066 8.93545 0 7.99994 0C9.23354 0 7.5231 4.18078 10.6671 3.04557Z" fill="#E4E4E4"/>
<path d="M7.99994 15.9997C8.93542 15.9997 9.83279 15.8377 10.6671 15.5426V12.9544C7.55468 12.6438 7.99994 15.9997 7.99994 15.9997Z" fill="#E4E4E4"/>
<path d="M0 7.99976C0 11.4944 2.24133 14.4636 5.36412 15.5533V0.446777C2.24133 1.53648 0 4.50565 0 7.99976Z" fill="#359846"/>
<path d="M10.6671 3.04541V12.9542C11.5289 10.1102 11.5289 5.88923 10.6671 3.04541Z" fill="#EF4C4C"/>
<path d="M10.6671 12.9545V3.04557C10.1224 1.24762 9.23352 0 7.99992 0C7.07606 0 6.1897 0.158654 5.36411 0.446779V15.5534C6.1897 15.8415 7.07606 15.9999 7.99992 15.9999C9.23352 15.9999 10.1224 14.7522 10.6671 12.9545Z" fill="#F3F4F5"/>
</g>
<defs>
<clipPath id="clip0_3281_6968">
<rect width="16" height="16" fill="white"/>
</clipPath>
</defs>
</svg>
