<svg width="16" height="16" viewBox="0 0 16 16" fill="none" xmlns="http://www.w3.org/2000/svg">
<g clip-path="url(#clip0_3281_6951)">
<path d="M8 16C12.4183 16 16 12.4183 16 8C16 3.58172 12.4183 0 8 0C3.58172 0 0 3.58172 0 8C0 12.4183 3.58172 16 8 16Z" fill="#F0F0F0"/>
<path d="M1.65376 3.12939C1.02535 3.94699 0.551511 4.88933 0.275604 5.91305H4.43742L1.65376 3.12939Z" fill="#0052B4"/>
<path d="M15.7244 5.91302C15.4485 4.88933 14.9746 3.94699 14.3462 3.12939L11.5627 5.91302H15.7244Z" fill="#0052B4"/>
<path d="M0.275604 10.0869C0.551542 11.1106 1.02539 12.0529 1.65376 12.8705L4.43732 10.0869H0.275604Z" fill="#0052B4"/>
<path d="M12.8706 1.65358C12.053 1.02517 11.1107 0.551328 10.0869 0.275391V4.43717L12.8706 1.65358Z" fill="#0052B4"/>
<path d="M3.12946 14.3461C3.94705 14.9745 4.88939 15.4483 5.91308 15.7242V11.5625L3.12946 14.3461Z" fill="#0052B4"/>
<path d="M5.91305 0.275391C4.88936 0.551328 3.94702 1.02517 3.12946 1.65355L5.91305 4.43714V0.275391Z" fill="#0052B4"/>
<path d="M10.087 15.7242C11.1107 15.4483 12.053 14.9745 12.8706 14.3461L10.087 11.5625V15.7242Z" fill="#0052B4"/>
<path d="M11.5627 10.0869L14.3462 12.8705C14.9746 12.053 15.4485 11.1106 15.7244 10.0869H11.5627Z" fill="#0052B4"/>
<path d="M15.9323 6.95653H9.04353H9.0435V0.0677188C8.70191 0.02325 8.35366 0 8 0C7.64628 0 7.29809 0.02325 6.95653 0.0677188V6.95647V6.9565H0.0677188C0.02325 7.29809 0 7.64634 0 8C0 8.35372 0.02325 8.70191 0.0677188 9.04347H6.95647H6.9565V15.9323C7.29809 15.9768 7.64628 16 8 16C8.35366 16 8.70191 15.9768 9.04347 15.9323V9.04353V9.0435H15.9323C15.9768 8.70191 16 8.35372 16 8C16 7.64634 15.9768 7.29809 15.9323 6.95653Z" fill="#D80027"/>
<path d="M10.087 10.0869L13.6569 13.6568C13.821 13.4927 13.9777 13.3211 14.1271 13.1432L11.0708 10.0869H10.087V10.0869Z" fill="#D80027"/>
<path d="M5.91305 10.0869H5.91298L2.34314 13.6568C2.50726 13.8209 2.67886 13.9776 2.85673 14.127L5.91305 11.0706V10.0869Z" fill="#D80027"/>
<path d="M5.91302 5.91323V5.91317L2.34314 2.34326C2.17896 2.50739 2.02233 2.67898 1.87289 2.85686L4.92924 5.9132L5.91302 5.91323Z" fill="#D80027"/>
<path d="M10.087 5.9132L13.6569 2.34327C13.4928 2.17908 13.3212 2.02245 13.1433 1.87305L10.087 4.92939V5.9132Z" fill="#D80027"/>
</g>
<defs>
<clipPath id="clip0_3281_6951">
<rect width="16" height="16" fill="white"/>
</clipPath>
</defs>
</svg>
