<svg width="16" height="16" viewBox="0 0 16 16" fill="none" xmlns="http://www.w3.org/2000/svg">
<g clip-path="url(#clip0_3281_6976)">
<path d="M8 16C12.4183 16 16 12.4183 16 8C16 3.58172 12.4183 0 8 0C3.58172 0 0 3.58172 0 8C0 12.4183 3.58172 16 8 16Z" fill="#0052B4"/>
<path d="M8.00002 3.13037L8.25905 3.92753H9.09718L8.41908 4.42018L8.67811 5.21734L8.00002 4.72465L7.32189 5.21734L7.58093 4.42018L6.90283 3.92753H7.74099L8.00002 3.13037Z" fill="#FFDA44"/>
<path d="M4.55667 4.55685L5.30354 4.93735L5.8962 4.34473L5.76504 5.17254L6.51189 5.55307L5.68404 5.6842L5.55292 6.51207L5.17239 5.76523L4.34457 5.89638L4.93723 5.30373L4.55667 4.55685Z" fill="#FFDA44"/>
<path d="M3.13046 8.00002L3.92762 7.74099V6.90283L4.42024 7.58096L5.21743 7.32193L4.72471 8.00002L5.21743 8.67811L4.42024 8.41911L3.92762 9.09721V8.25905L3.13046 8.00002Z" fill="#FFDA44"/>
<path d="M4.55667 11.4435L4.9372 10.6966L4.34457 10.1039L5.17242 10.2351L5.55289 9.48828L5.68404 10.3161L6.51186 10.4473L5.76511 10.8278L5.8962 11.6556L5.30354 11.0629L4.55667 11.4435Z" fill="#FFDA44"/>
<path d="M8.00002 12.8696L7.74096 12.0725H6.90283L7.58096 11.5798L7.32189 10.7827L8.00002 11.2753L8.67811 10.7827L8.41908 11.5798L9.09718 12.0725H8.25902L8.00002 12.8696Z" fill="#FFDA44"/>
<path d="M11.4433 11.4435L10.6965 11.063L10.1038 11.6556L10.235 10.8278L9.48819 10.4473L10.316 10.3161L10.4471 9.48828L10.8276 10.2351L11.6554 10.1039L11.0628 10.6967L11.4433 11.4435Z" fill="#FFDA44"/>
<path d="M12.8696 8.00002L12.0724 8.25905V9.09721L11.5797 8.41908L10.7827 8.67811L11.2753 8.00002L10.7827 7.32193L11.5798 7.58096L12.0724 6.90283V7.74102L12.8696 8.00002Z" fill="#FFDA44"/>
<path d="M11.4433 4.55682L11.0628 5.3037L11.6555 5.89635L10.8276 5.76516L10.4471 6.51201L10.316 5.68416L9.48819 5.55301L10.235 5.17251L10.1038 4.34473L10.6965 4.93735L11.4433 4.55682Z" fill="#FFDA44"/>
</g>
<defs>
<clipPath id="clip0_3281_6976">
<rect width="16" height="16" fill="white"/>
</clipPath>
</defs>
</svg>
