<svg width="16" height="16" viewBox="0 0 16 16" fill="none" xmlns="http://www.w3.org/2000/svg">
<g clip-path="url(#clip0_3223_8114)">
<path d="M11.5265 15.8366C11.9183 15.8366 12.1795 15.5753 12.1795 15.1835V14.5957H13.0285C14.3346 14.5957 15.3795 13.5508 15.3795 12.2447V5.51819C15.3795 4.21207 14.3346 3.23247 13.0285 3.23247H9.95914L11.3959 1.86105C11.6571 1.59982 11.6571 1.20798 11.3959 0.94676C11.1346 0.685535 10.7428 0.685535 10.4816 0.94676L8.32648 2.97125L5.64893 0.359004C5.38771 0.0977798 4.99587 0.0977798 4.73465 0.359004C4.47342 0.620229 4.47342 1.01207 4.73465 1.27329L6.69383 3.16717H2.97138C1.66526 3.16717 0.620361 4.21207 0.620361 5.45288V12.1794C0.620361 13.4855 1.66526 14.5304 2.97138 14.5304H3.82036V15.1835C3.82036 15.5753 4.08159 15.8366 4.47342 15.8366C4.86526 15.8366 5.12648 15.5753 5.12648 15.1835V14.5957H10.8734V15.1835C10.8734 15.5753 11.1346 15.8366 11.5265 15.8366ZM12.3755 6.82431C12.7673 6.49778 13.2244 6.56309 13.551 6.82431C13.8775 7.15084 13.8775 7.67329 13.551 7.99982C13.2244 8.32635 12.702 8.32635 12.3755 7.99982C12.0489 7.67329 12.0489 7.15084 12.3755 6.82431ZM12.3755 9.76309C12.8326 9.37125 13.4204 9.50186 13.6163 9.8937C13.8775 10.2202 13.7469 10.6774 13.4857 10.9386C13.1591 11.2651 12.6367 11.2651 12.3102 10.9386C12.1142 10.6774 11.9836 10.2202 12.3755 9.76309ZM10.5469 10.6121C10.5469 11.3304 9.95914 11.9182 9.24077 11.9182H4.34281C3.62444 11.9182 3.03669 11.3304 3.03669 10.6121V7.15084C3.03669 6.43247 3.62444 5.84472 4.34281 5.84472H9.24077C9.95914 5.84472 10.5469 6.43247 10.5469 7.15084V10.6121Z" fill="white"/>
</g>
<defs>
<clipPath id="clip0_3223_8114">
<rect width="16" height="16" fill="white"/>
</clipPath>
</defs>
</svg>
