<svg width="340" height="105" viewBox="0 0 340 105" fill="none" xmlns="http://www.w3.org/2000/svg">
<path d="M336.849 57.7107L339.064 54.8477L330.214 48.0005L327.999 50.8636L336.849 57.7107Z" stroke="#7B85EF" stroke-width="0.5" stroke-miterlimit="10"/>
<path d="M10.023 59.928L6.95898 58L0.999189 67.4712L4.06316 69.3992L10.023 59.928Z" stroke="#7B85EF" stroke-width="0.5" stroke-miterlimit="10"/>
<path d="M79.3602 29.4089L82.9473 29.8965L84.4546 18.8083L80.8675 18.3207L79.3602 29.4089Z" stroke="#7B85EF" stroke-width="0.5" stroke-miterlimit="10"/>
<path d="M273.663 65.3988L270.324 64L266 74.3205L269.339 75.7193L273.663 65.3988Z" stroke="#7B85EF" stroke-width="0.5" stroke-miterlimit="10"/>
<path d="M272.258 23.223L274.701 20.5518L266.444 12.9996L264.001 15.6708L272.258 23.223Z" stroke="#7B85EF" stroke-width="0.5" stroke-miterlimit="10"/>
<circle cx="148.5" cy="52.5" r="52.5" fill="url(#paint0_radial_2162_5381)" fill-opacity="0.4"/>
<path d="M215.57 52.04C215.6 55.14 214.35 57.95 212.32 59.98C210.31 61.98 207.54 63.23 204.5 63.23H137.32C135.05 63.23 133.21 61.39 133.21 59.12V57.69V57.68C133.21 49.67 138.97 42.93 146.55 41.4C146.54 41.29 146.54 41.18 146.54 41.07C146.54 38.03 147.78 35.25 149.79 33.25C151.8 31.24 154.57 30 157.61 30H178.51C184.6 30 189.58 34.98 189.58 41.07H204.2C210.32 41.09 215.51 45.92 215.57 52.04Z" fill="#739AF0"/>
<path d="M214.66 69.2804H187.65C186.62 69.2804 185.77 68.4304 185.77 67.4004V67.0304C185.77 66.0004 186.62 65.1504 187.65 65.1504H214.66C215.69 65.1504 216.54 66.0004 216.54 67.0304V67.4104C216.54 68.4404 215.7 69.2804 214.66 69.2804Z" fill="#243971"/>
<path d="M221.02 53.1397H201.25C200.26 53.1397 199.45 52.3297 199.45 51.3397V50.9797C199.45 49.9897 200.26 49.1797 201.25 49.1797H221.02C222.01 49.1797 222.82 49.9897 222.82 50.9797V51.3397C222.81 52.3297 222.01 53.1397 221.02 53.1397Z" fill="#FF9100"/>
<path d="M220.2 57.9904H211.95C211.12 57.9904 210.45 57.3104 210.45 56.4904V56.1904C210.45 55.3604 211.13 54.6904 211.95 54.6904H220.2C221.03 54.6904 221.7 55.3704 221.7 56.1904V56.4904C221.7 57.3104 221.03 57.9904 220.2 57.9904Z" fill="#EEC12D"/>
<path d="M133 51.0698H160.49V40.3398" stroke="white" stroke-width="0.5" stroke-miterlimit="10"/>
<path d="M133 53.6797H154.68L159.13 57.9897H170.78" stroke="white" stroke-width="0.5" stroke-miterlimit="10"/>
<path d="M133 48.4102H145.74" stroke="white" stroke-width="0.5" stroke-miterlimit="10"/>
<path d="M169.63 57.9504C169.63 60.3104 173.3 60.3104 173.3 57.9504C173.3 55.5804 169.63 55.5804 169.63 57.9504Z" fill="white"/>
<path d="M158.86 39.3696C158.86 41.7296 162.53 41.7296 162.53 39.3696C162.52 37.0096 158.86 37.0096 158.86 39.3696Z" fill="white"/>
<path d="M144.59 48.4105C144.59 50.7705 148.26 50.7705 148.26 48.4105C148.26 46.0505 144.59 46.0405 144.59 48.4105Z" fill="white"/>
<defs>
<radialGradient id="paint0_radial_2162_5381" cx="0" cy="0" r="1" gradientUnits="userSpaceOnUse" gradientTransform="translate(148.5 52.5) rotate(90) scale(52.5)">
<stop stop-color="#739AF0"/>
<stop offset="1" stop-color="#739AF0" stop-opacity="0"/>
</radialGradient>
</defs>
</svg>
