<svg width="127" height="105" viewBox="0 0 127 105" fill="none" xmlns="http://www.w3.org/2000/svg">
<circle cx="52.5" cy="52.5" r="52.5" fill="url(#paint0_radial_2107_5390)" fill-opacity="0.4"/>
<path d="M119.57 52.04C119.6 55.14 118.35 57.95 116.32 59.98C114.31 61.98 111.54 63.23 108.5 63.23H41.32C39.05 63.23 37.21 61.39 37.21 59.12V57.69V57.68C37.21 49.67 42.97 42.93 50.55 41.4C50.54 41.29 50.54 41.18 50.54 41.07C50.54 38.03 51.78 35.25 53.79 33.25C55.8 31.24 58.57 30 61.61 30H82.5099C88.5999 30 93.58 34.98 93.58 41.07H108.2C114.32 41.09 119.51 45.92 119.57 52.04Z" fill="#739AF0"/>
<path d="M118.66 69.2804H91.6495C90.6195 69.2804 89.7695 68.4304 89.7695 67.4004V67.0304C89.7695 66.0004 90.6195 65.1504 91.6495 65.1504H118.66C119.69 65.1504 120.54 66.0004 120.54 67.0304V67.4104C120.54 68.4404 119.7 69.2804 118.66 69.2804Z" fill="#243971"/>
<path d="M125.02 53.1397H105.25C104.26 53.1397 103.45 52.3297 103.45 51.3397V50.9797C103.45 49.9897 104.26 49.1797 105.25 49.1797H125.02C126.01 49.1797 126.82 49.9897 126.82 50.9797V51.3397C126.81 52.3297 126.01 53.1397 125.02 53.1397Z" fill="#FF9100"/>
<path d="M124.2 57.9904H115.95C115.12 57.9904 114.45 57.3104 114.45 56.4904V56.1904C114.45 55.3604 115.13 54.6904 115.95 54.6904H124.2C125.03 54.6904 125.7 55.3704 125.7 56.1904V56.4904C125.7 57.3104 125.03 57.9904 124.2 57.9904Z" fill="#EEC12D"/>
<path d="M37 51.0698H64.49V40.3398" stroke="white" stroke-width="0.5" stroke-miterlimit="10"/>
<path d="M37 53.6797H58.68L63.13 57.9897H74.78" stroke="white" stroke-width="0.5" stroke-miterlimit="10"/>
<path d="M37 48.4102H49.74" stroke="white" stroke-width="0.5" stroke-miterlimit="10"/>
<path d="M73.6299 57.9504C73.6299 60.3104 77.2999 60.3104 77.2999 57.9504C77.2999 55.5804 73.6299 55.5804 73.6299 57.9504Z" fill="white"/>
<path d="M62.8604 39.3696C62.8604 41.7296 66.5304 41.7296 66.5304 39.3696C66.5204 37.0096 62.8604 37.0096 62.8604 39.3696Z" fill="white"/>
<path d="M48.5898 48.4105C48.5898 50.7705 52.2598 50.7705 52.2598 48.4105C52.2598 46.0505 48.5898 46.0405 48.5898 48.4105Z" fill="white"/>
<rect x="70" y="56" width="15.338" height="15.338" rx="3.06759" fill="#E05F55"/>
<path d="M75.4668 61.4658L77.9668 63.9658M77.9668 63.9658L80.4668 66.4658M77.9668 63.9658L80.4668 61.4658M77.9668 63.9658L75.4668 66.4658" stroke="white" stroke-width="1.5338" stroke-linecap="round" stroke-linejoin="round"/>
<defs>
<radialGradient id="paint0_radial_2107_5390" cx="0" cy="0" r="1" gradientUnits="userSpaceOnUse" gradientTransform="translate(52.5 52.5) rotate(90) scale(52.5)">
<stop stop-color="#739AF0"/>
<stop offset="1" stop-color="#739AF0" stop-opacity="0"/>
</radialGradient>
</defs>
</svg>
