<svg id="Layer_1" data-name="Layer 1" xmlns="http://www.w3.org/2000/svg" xmlns:xlink="http://www.w3.org/1999/xlink" viewBox="0 0 1896.87 412.88"><defs><style>.cls-1{fill:url(#linear-gradient);}.cls-2{fill:#fff;}</style><linearGradient id="linear-gradient" y1="-886.02" x2="409.57" y2="-886.02" gradientTransform="matrix(1, 0, 0, -1, 0, -679.58)" gradientUnits="userSpaceOnUse"><stop offset="0" stop-color="#e28933"/><stop offset="1" stop-color="#bd3b32"/></linearGradient></defs><path class="cls-1" d="M313.58,131.34V116.83a59.68,59.68,0,0,1,48.1,82.31l-12.61-7.28a45.26,45.26,0,0,0-35.49-60.52Zm-254,61a45.25,45.25,0,0,1,35.26-61V116.83A59.66,59.66,0,0,0,47,199.64ZM204.22,398.46A45.18,45.18,0,0,1,169.1,381.7L156.49,389a59.64,59.64,0,0,0,95.79-.46l-12.59-7.26A45.2,45.2,0,0,1,204.22,398.46Zm205.35-154.4V353.72l-95,54.83-95-54.83V310.65a45.08,45.08,0,0,0-29.7-.38v43.45L95,408.55,0,353.72V244.06l54.63-31.54-.37-.45,12.61-7.28c.12.15.25.29.38.44l27.72-16,36.43,21A45.28,45.28,0,0,0,146,185.72l-36.77-21.23V131.43h0V116.9h0V54.83L204.22,0l95,54.83V164.49L262.45,185.7a45.34,45.34,0,0,0,15.06,25l37.09-21.42,27,15.57c.12-.15.26-.29.38-.44l12.6,7.27c-.12.16-.25.3-.36.46ZM292,218.88a45,45,0,0,0,38-4.11l-15.45-8.92Zm-7.23-63.36V136.47A45.38,45.38,0,0,0,262,168.66Zm-161.16-35A59.65,59.65,0,0,1,161.43,176v1.27L204.22,202l42.83-24.73V176a59.64,59.64,0,0,1,37.79-55.47V62.47L204.22,16,123.64,62.47Zm0,35,22.82,13.17a45.36,45.36,0,0,0-22.82-32.24ZM95,205.85l-16,9.24a45.14,45.14,0,0,0,38.18,3.56Zm0,186.08,50.39-29.09a59.61,59.61,0,0,1,30.18-61.95V252.37l-43.3-25a59.58,59.58,0,0,1-67.1-4.3l-50.75,29.3v93Zm80.57-73.71a45.18,45.18,0,0,0-16.58,35V355l16.54-9.55Zm44.09-22.65V244.06l44.81-25.87a59.51,59.51,0,0,1-14.92-25l-45.3,26.15L159,193.18a59.49,59.49,0,0,1-14.53,24.61L190,244.06v51.23a59.63,59.63,0,0,1,29.7.28ZM234,345.41l15.43,8.91V353.2a45.14,45.14,0,0,0-15.46-34Zm161.16-93-51.36-29.7a59.57,59.57,0,0,1-67,5L234,252.37v49.17a59.64,59.64,0,0,1,29.16,60.71l51.42,29.68,80.58-46.52Z"/><path class="cls-2" d="M739.88,322.44a20.07,20.07,0,0,1-1.49,7.76,18.46,18.46,0,0,1-4.2,6.2,20,20,0,0,1-13.9,5.61H632.67a120.31,120.31,0,0,1-25.1-2.67A111.59,111.59,0,0,1,583,331a105.29,105.29,0,0,1-22.35-14.22,93,93,0,0,1-18.32-20.56A100.42,100.42,0,0,1,530,269.12a121.54,121.54,0,0,1-4.48-34.18V127.67H564.4V234.94q0,16.45,4.57,27.82a61.23,61.23,0,0,0,11.63,19,55.8,55.8,0,0,0,15.34,11.84A81.83,81.83,0,0,0,611.87,300a75.34,75.34,0,0,0,13.3,2.59c3.83.34,6.35.52,7.56.52H701V127.59h38.87Z"/><path class="cls-2" d="M851.73,342H834.39a62.25,62.25,0,0,1-17.87-2.84,52.74,52.74,0,0,1-17.68-9.34,51.35,51.35,0,0,1-13.61-16.91q-5.38-10.33-5.38-25.48V112.05h38.88V287.46a15.05,15.05,0,0,0,4.48,11.43,15.7,15.7,0,0,0,11.22,4.26h17.34Z"/><path class="cls-2" d="M1017.88,219.26H950V342H910.65V219.26H860.11V180.39h50.54v-52.8H950v52.8h67.9Z"/><path class="cls-2" d="M1082.92,147.18h-38.87V112.05h38.87Zm0,194.85h-38.87V180.39h38.87Z"/><path class="cls-2" d="M1338.49,294.93a53.72,53.72,0,0,1-2.47,15.4,44.63,44.63,0,0,1-22.66,27q-9,4.69-22,4.71H1143.81a20,20,0,0,1-7.76-1.5,18.73,18.73,0,0,1-10.34-10.33,20,20,0,0,1-1.5-7.76V147.18a19.36,19.36,0,0,1,1.5-7.62,19.92,19.92,0,0,1,4.11-6.28,18.37,18.37,0,0,1,6.21-4.19,20,20,0,0,1,7.75-1.5h130.09a52.34,52.34,0,0,1,15.4,2.59,47.07,47.07,0,0,1,15.33,8.14,44.66,44.66,0,0,1,11.81,14.59q4.71,9,4.72,22v7.31a80.47,80.47,0,0,1-3.44,22.22,73.43,73.43,0,0,1-11.07,22.5,68.53,68.53,0,0,1,12.34,9.72,62.44,62.44,0,0,1,10.09,13.17,69.16,69.16,0,0,1,6.88,16.89,79.72,79.72,0,0,1,2.58,20.79Zm-38.88-7.47a37,37,0,0,0-2.39-13.69,30.3,30.3,0,0,0-6.73-10.34,29.13,29.13,0,0,0-10.47-6.65,38.44,38.44,0,0,0-13.76-2.33h-87.62V215.23h70.13a38.57,38.57,0,0,0,13.75-2.33,28.64,28.64,0,0,0,17.07-17.05,38.22,38.22,0,0,0,2.32-13.68v-7.32q0-8.37-8.08-8.37H1163V303.15h128.31a24.8,24.8,0,0,0,2.58-.15,6.26,6.26,0,0,0,2.69-.89,6.12,6.12,0,0,0,2.09-2.58,11.34,11.34,0,0,0,.91-4.94Z"/><path class="cls-2" d="M1541.86,233.91a60,60,0,0,1-2.84,17.43,52.11,52.11,0,0,1-9.2,17.34,51.4,51.4,0,0,1-16.59,13.39q-10.26,5.39-24.91,5.39h-70.13v-37h70.13q7.92,0,12.27-4.86a17.44,17.44,0,0,0,4.34-12q0-7.63-4.87-12a17,17,0,0,0-11.74-4.33h-70.13c-5.29,0-9.37,1.62-12.27,4.86a17.48,17.48,0,0,0-4.33,12v54.28q0,7.76,4.86,12.12a17.42,17.42,0,0,0,12,4.33h69.78V342h-70.13a59.86,59.86,0,0,1-17.42-2.84,52.06,52.06,0,0,1-17.35-9.2,51,51,0,0,1-13.32-16.55q-5.37-10.23-5.38-24.9V233.91a60,60,0,0,1,2.85-17.42,52.06,52.06,0,0,1,9.18-17.34,51.35,51.35,0,0,1,16.61-13.39q10.23-5.38,24.89-5.37h70.14a59.87,59.87,0,0,1,17.41,2.86,51,51,0,0,1,30.73,25.85Q1541.86,219.27,1541.86,233.91Z"/><path class="cls-2" d="M1715,219.26h-67.89V342h-39.29V219.26H1557.3V180.39h50.55v-52.8h39.33v52.8h67.89Z"/><path class="cls-2" d="M1896.86,287.46a59.37,59.37,0,0,1-2.58,18,52.75,52.75,0,0,1-6.74,14,45.86,45.86,0,0,1-9.71,10.34,56.64,56.64,0,0,1-11.64,6.95,60.72,60.72,0,0,1-24,5.26H1736.92V303.15h105q7.92,0,11.95-4t4.05-11.63q-.75-15.51-15.7-15.51h-60.27q-12.92,0-21.84-4.48a44.79,44.79,0,0,1-14.58-11.22,42.57,42.57,0,0,1-8.06-14.5,47.73,47.73,0,0,1-2.48-14.51q0-13,4.64-22a43.41,43.41,0,0,1,11.63-14.42,45.33,45.33,0,0,1,15.25-8,53,53,0,0,1,15.4-2.47h95.56v38.87h-95.13a13.5,13.5,0,0,0-4.72.67,5.64,5.64,0,0,0-2.58,1.8,4.88,4.88,0,0,0-1,2.39,22.59,22.59,0,0,0-.16,2.47,8.75,8.75,0,0,0,.9,3.73,4.77,4.77,0,0,0,1.87,2,6.1,6.1,0,0,0,2.58.67c1,0,1.87.08,2.77.08h60.26q14.94,0,25.42,5.37a50.59,50.59,0,0,1,16.89,13.53,53.78,53.78,0,0,1,9.36,17.73A61.46,61.46,0,0,1,1896.86,287.46Z"/></svg>