<svg width="113" height="117" viewBox="0 0 113 117" fill="none" xmlns="http://www.w3.org/2000/svg">
<path d="M84.1314 88.5717C99.6196 73.0329 99.6196 47.8396 84.1314 32.3009C68.6433 16.7621 43.532 16.7621 28.0438 32.3009C12.5556 47.8396 12.5556 73.0329 28.0438 88.5717C43.532 104.11 68.6433 104.11 84.1314 88.5717Z" fill="#6385DB"/>
<path d="M84.1314 84.4062C99.6196 68.8675 99.6196 43.6742 84.1314 28.1354C68.6433 12.5967 43.532 12.5967 28.0438 28.1354C12.5556 43.6742 12.5556 68.8675 28.0438 84.4062C43.532 99.945 68.6433 99.945 84.1314 84.4062Z" fill="#739AF0"/>
<path d="M75.4133 83.851C75.341 83.851 75.27 83.8168 75.2253 83.7534C75.1517 83.6492 75.1753 83.5055 75.2805 83.4303C79.514 80.4137 83.0309 76.3893 85.4513 71.7925C87.9506 67.044 89.2719 61.6768 89.2719 56.2701C89.2719 56.1422 89.3758 56.0393 89.502 56.0393C89.6296 56.0393 89.7321 56.1435 89.7321 56.2701C89.7321 61.752 88.3924 67.193 85.8589 72.0088C83.4056 76.6703 79.84 80.75 75.5474 83.8075C75.5067 83.8365 75.4593 83.851 75.4133 83.851Z" fill="white"/>
<path d="M22.6783 56.5023C22.5508 56.5023 22.4482 56.3981 22.4482 56.2715C22.4482 48.9232 24.7609 41.9376 29.1363 36.0705C32.2049 31.9565 36.2306 28.5468 40.7783 26.2108C45.5455 23.7613 50.6967 22.5201 56.091 22.5201C65.7451 22.5201 74.947 26.6909 81.3353 33.9614C81.4194 34.0577 81.4102 34.2041 81.3142 34.2885C81.2182 34.3729 81.0736 34.3637 80.9882 34.2674C74.6866 27.0959 65.611 22.9831 56.0897 22.9831C50.7703 22.9831 45.6888 24.2072 40.9873 26.6223C36.5028 28.9267 32.5323 32.2889 29.5044 36.3475C25.1895 42.1341 22.9084 49.0234 22.9084 56.2715C22.9097 56.3981 22.8059 56.5023 22.6783 56.5023Z" fill="white"/>
<path d="M36.0344 49.4687V42.196H38.9038C39.453 42.196 39.9218 42.2942 40.31 42.4907C40.7006 42.6848 40.9978 42.9606 41.2013 43.3181C41.4073 43.6732 41.5103 44.0911 41.5103 44.5717C41.5103 45.0546 41.4061 45.4701 41.1978 45.8181C40.9895 46.1638 40.6876 46.4289 40.2923 46.6136C39.8993 46.7982 39.4234 46.8906 38.8647 46.8906H36.9435V45.6548H38.6161C38.9097 45.6548 39.1535 45.6145 39.3477 45.534C39.5418 45.4535 39.6862 45.3328 39.7809 45.1718C39.878 45.0108 39.9265 44.8108 39.9265 44.5717C39.9265 44.3302 39.878 44.1266 39.7809 43.9609C39.6862 43.7952 39.5406 43.6697 39.3441 43.5845C39.15 43.4969 38.9049 43.4531 38.609 43.4531H37.5721V49.4687H36.0344ZM39.962 46.159L41.7695 49.4687H40.0721L38.3036 46.159H39.962ZM44.1239 49.5717C43.7759 49.5717 43.4658 49.5113 43.1935 49.3906C42.9213 49.2675 42.7058 49.0863 42.5472 48.8472C42.391 48.6058 42.3129 48.3051 42.3129 47.9453C42.3129 47.6422 42.3685 47.3877 42.4798 47.1818C42.591 46.9758 42.7425 46.8101 42.9343 46.6846C43.1261 46.5591 43.3439 46.4644 43.5877 46.4005C43.8339 46.3366 44.092 46.2916 44.3619 46.2656C44.6791 46.2324 44.9348 46.2016 45.1289 46.1732C45.323 46.1425 45.4639 46.0975 45.5515 46.0383C45.6391 45.9791 45.6829 45.8915 45.6829 45.7755V45.7542C45.6829 45.5293 45.6119 45.3553 45.4698 45.2322C45.3301 45.1091 45.1313 45.0475 44.8732 45.0475C44.601 45.0475 44.3844 45.1079 44.2234 45.2286C44.0624 45.347 43.9558 45.4962 43.9038 45.6761L42.5046 45.5624C42.5756 45.231 42.7153 44.9445 42.9237 44.7031C43.132 44.4592 43.4007 44.2722 43.7298 44.142C44.0612 44.0094 44.4447 43.9431 44.8803 43.9431C45.1834 43.9431 45.4734 43.9786 45.7504 44.0497C46.0297 44.1207 46.2771 44.2308 46.4925 44.3799C46.7103 44.5291 46.882 44.7208 47.0075 44.9552C47.1329 45.1872 47.1957 45.4654 47.1957 45.7897V49.4687H45.761V48.7123H45.7184C45.6308 48.8828 45.5136 49.0331 45.3668 49.1633C45.2201 49.2911 45.0437 49.3917 44.8377 49.4651C44.6317 49.5362 44.3938 49.5717 44.1239 49.5717ZM44.5572 48.5276C44.7797 48.5276 44.9762 48.4838 45.1467 48.3962C45.3171 48.3063 45.4509 48.1855 45.5479 48.034C45.645 47.8825 45.6935 47.7109 45.6935 47.5191V46.9403C45.6462 46.9711 45.5811 46.9995 45.4982 47.0255C45.4177 47.0492 45.3266 47.0717 45.2248 47.093C45.123 47.1119 45.0212 47.1297 44.9194 47.1462C44.8176 47.1605 44.7253 47.1735 44.6424 47.1853C44.4648 47.2113 44.3098 47.2528 44.1772 47.3096C44.0446 47.3664 43.9416 47.4434 43.8683 47.5404C43.7949 47.6351 43.7582 47.7535 43.7582 47.8955C43.7582 48.1015 43.8327 48.2589 43.9819 48.3678C44.1334 48.4744 44.3252 48.5276 44.5572 48.5276ZM49.8821 46.3153V49.4687H48.3693V44.0141H49.8111V44.9765H49.875C49.9957 44.6593 50.1982 44.4083 50.4822 44.2237C50.7663 44.0366 51.1108 43.9431 51.5156 43.9431C51.8944 43.9431 52.2247 44.026 52.5064 44.1917C52.7881 44.3574 53.0071 44.5942 53.1634 44.9019C53.3196 45.2073 53.3977 45.5719 53.3977 45.9957V49.4687H51.8849V46.2656C51.8873 45.9318 51.8021 45.6713 51.6293 45.4843C51.4564 45.2949 51.2185 45.2002 50.9155 45.2002C50.7119 45.2002 50.532 45.244 50.3757 45.3316C50.2218 45.4192 50.1011 45.5471 50.0135 45.7151C49.9283 45.8809 49.8845 46.0809 49.8821 46.3153ZM56.6 49.5575C56.1857 49.5575 55.8104 49.4509 55.4743 49.2379C55.1404 49.0224 54.8753 48.7064 54.6788 48.2897C54.4847 47.8707 54.3876 47.3569 54.3876 46.7485C54.3876 46.1235 54.4882 45.6039 54.6895 45.1896C54.8907 44.7729 55.1582 44.4616 55.492 44.2556C55.8282 44.0473 56.1963 43.9431 56.5964 43.9431C56.9018 43.9431 57.1563 43.9952 57.3599 44.0994C57.5659 44.2012 57.7316 44.329 57.8571 44.4829C57.9849 44.6344 58.082 44.7836 58.1483 44.9303H58.1944V42.196H59.7037V49.4687H58.2122V48.5951H58.1483C58.0772 48.7466 57.9766 48.897 57.8464 49.0461C57.7186 49.1929 57.5517 49.3148 57.3457 49.4119C57.1421 49.5089 56.8935 49.5575 56.6 49.5575ZM57.0794 48.3536C57.3232 48.3536 57.5292 48.2873 57.6973 48.1548C57.8677 48.0198 57.9979 47.8316 58.0879 47.5901C58.1802 47.3487 58.2264 47.0658 58.2264 46.7414C58.2264 46.4171 58.1814 46.1354 58.0914 45.8962C58.0015 45.6571 57.8713 45.4725 57.7008 45.3423C57.5304 45.2121 57.3232 45.147 57.0794 45.147C56.8308 45.147 56.6213 45.2144 56.4508 45.3494C56.2804 45.4843 56.1513 45.6713 56.0637 45.9105C55.9761 46.1496 55.9324 46.4265 55.9324 46.7414C55.9324 47.0587 55.9761 47.3392 56.0637 47.583C56.1537 47.8245 56.2827 48.0139 56.4508 48.1512C56.6213 48.2862 56.8308 48.3536 57.0794 48.3536ZM63.4119 49.5752C62.8603 49.5752 62.3833 49.458 61.9808 49.2237C61.5807 48.9869 61.2718 48.6578 61.054 48.2364C60.8362 47.8127 60.7273 47.3214 60.7273 46.7627C60.7273 46.1993 60.8362 45.7069 61.054 45.2855C61.2718 44.8617 61.5807 44.5326 61.9808 44.2982C62.3833 44.0615 62.8603 43.9431 63.4119 43.9431C63.9635 43.9431 64.4394 44.0615 64.8395 44.2982C65.242 44.5326 65.5521 44.8617 65.7699 45.2855C65.9877 45.7069 66.0966 46.1993 66.0966 46.7627C66.0966 47.3214 65.9877 47.8127 65.7699 48.2364C65.5521 48.6578 65.242 48.9869 64.8395 49.2237C64.4394 49.458 63.9635 49.5752 63.4119 49.5752ZM63.419 48.4033C63.67 48.4033 63.8795 48.3323 64.0476 48.1903C64.2157 48.0459 64.3423 47.8494 64.4276 47.6008C64.5152 47.3522 64.5589 47.0693 64.5589 46.7521C64.5589 46.4348 64.5152 46.1519 64.4276 45.9033C64.3423 45.6548 64.2157 45.4583 64.0476 45.3139C63.8795 45.1694 63.67 45.0972 63.419 45.0972C63.1657 45.0972 62.9527 45.1694 62.7798 45.3139C62.6094 45.4583 62.4804 45.6548 62.3928 45.9033C62.3075 46.1519 62.2649 46.4348 62.2649 46.7521C62.2649 47.0693 62.3075 47.3522 62.3928 47.6008C62.4804 47.8494 62.6094 48.0459 62.7798 48.1903C62.9527 48.3323 63.1657 48.4033 63.419 48.4033ZM67.0803 49.4687V44.0141H68.522V44.9765H68.5859C68.6996 44.6569 68.889 44.4048 69.1541 44.2201C69.4193 44.0355 69.7365 43.9431 70.1058 43.9431C70.4799 43.9431 70.7983 44.0366 71.0611 44.2237C71.3239 44.4083 71.4991 44.6593 71.5866 44.9765H71.6435C71.7547 44.664 71.956 44.4142 72.2472 44.2272C72.5407 44.0378 72.8875 43.9431 73.2876 43.9431C73.7966 43.9431 74.2098 44.1053 74.527 44.4296C74.8466 44.7516 75.0064 45.2085 75.0064 45.8004V49.4687H73.4972V46.0987C73.4972 45.7956 73.4167 45.5684 73.2557 45.4168C73.0947 45.2653 72.8935 45.1896 72.652 45.1896C72.3774 45.1896 72.1631 45.2772 72.0092 45.4524C71.8554 45.6252 71.7784 45.8536 71.7784 46.1377V49.4687H70.3118V46.0667C70.3118 45.7992 70.2348 45.5861 70.081 45.4275C69.9295 45.2689 69.7294 45.1896 69.4808 45.1896C69.3127 45.1896 69.1612 45.2322 69.0263 45.3174C68.8937 45.4003 68.7884 45.5175 68.7102 45.669C68.6321 45.8181 68.593 45.9933 68.593 46.1945V49.4687H67.0803ZM49.3059 56.2876C49.2775 56.0011 49.1556 55.7786 48.9402 55.62C48.7247 55.4613 48.4324 55.382 48.063 55.382C47.8121 55.382 47.6002 55.4176 47.4274 55.4886C47.2546 55.5572 47.122 55.6531 47.0297 55.7762C46.9397 55.8993 46.8947 56.039 46.8947 56.1953C46.89 56.3255 46.9172 56.4391 46.9764 56.5362C47.0379 56.6332 47.122 56.7173 47.2285 56.7883C47.335 56.8569 47.4582 56.9173 47.5978 56.9694C47.7375 57.0191 47.8867 57.0617 48.0453 57.0972L48.6987 57.2535C49.0159 57.3245 49.3071 57.4192 49.5723 57.5376C49.8374 57.656 50.0671 57.8015 50.2612 57.9744C50.4553 58.1472 50.6056 58.3508 50.7122 58.5852C50.8211 58.8195 50.8767 59.0882 50.8791 59.3913C50.8767 59.8363 50.7631 60.2222 50.5382 60.5489C50.3156 60.8733 49.9937 61.1254 49.5723 61.3053C49.1532 61.4829 48.6478 61.5717 48.0559 61.5717C47.4688 61.5717 46.9574 61.4817 46.5218 61.3018C46.0886 61.1219 45.7501 60.8555 45.5062 60.5028C45.2647 60.1477 45.1381 59.7085 45.1262 59.1853H46.6142C46.6307 59.4292 46.7006 59.6328 46.8237 59.7961C46.9492 59.9571 47.1161 60.079 47.3244 60.1619C47.5351 60.2424 47.773 60.2826 48.0382 60.2826C48.2986 60.2826 48.5247 60.2447 48.7164 60.169C48.9106 60.0932 49.0609 59.9879 49.1674 59.8529C49.274 59.718 49.3272 59.5629 49.3272 59.3877C49.3272 59.2244 49.2787 59.0871 49.1816 58.9758C49.0869 58.8645 48.9473 58.7698 48.7626 58.6917C48.5803 58.6136 48.3566 58.5426 48.0914 58.4786L47.2995 58.2798C46.6864 58.1306 46.2022 57.8974 45.8471 57.5802C45.492 57.263 45.3156 56.8356 45.318 56.2982C45.3156 55.8579 45.4328 55.4732 45.6696 55.1441C45.9087 54.815 46.2366 54.5582 46.6532 54.3735C47.0699 54.1889 47.5434 54.0965 48.0737 54.0965C48.6135 54.0965 49.0846 54.1889 49.487 54.3735C49.8919 54.5582 50.2067 54.815 50.4316 55.1441C50.6565 55.4732 50.7725 55.8543 50.7797 56.2876H49.3059ZM54.3494 61.5752C53.7978 61.5752 53.3208 61.458 52.9183 61.2237C52.5182 60.9869 52.2093 60.6578 51.9915 60.2364C51.7737 59.8127 51.6648 59.3214 51.6648 58.7627C51.6648 58.1993 51.7737 57.7069 51.9915 57.2855C52.2093 56.8617 52.5182 56.5326 52.9183 56.2982C53.3208 56.0615 53.7978 55.9431 54.3494 55.9431C54.901 55.9431 55.3769 56.0615 55.777 56.2982C56.1795 56.5326 56.4896 56.8617 56.7074 57.2855C56.9252 57.7069 57.0341 58.1993 57.0341 58.7627C57.0341 59.3214 56.9252 59.8127 56.7074 60.2364C56.4896 60.6578 56.1795 60.9869 55.777 61.2237C55.3769 61.458 54.901 61.5752 54.3494 61.5752ZM54.3565 60.4033C54.6075 60.4033 54.817 60.3323 54.9851 60.1903C55.1532 60.0459 55.2798 59.8494 55.3651 59.6008C55.4527 59.3522 55.4964 59.0693 55.4964 58.7521C55.4964 58.4348 55.4527 58.1519 55.3651 57.9033C55.2798 57.6548 55.1532 57.4583 54.9851 57.3139C54.817 57.1694 54.6075 57.0972 54.3565 57.0972C54.1032 57.0972 53.8902 57.1694 53.7173 57.3139C53.5469 57.4583 53.4179 57.6548 53.3303 57.9033C53.245 58.1519 53.2024 58.4348 53.2024 58.7521C53.2024 59.0693 53.245 59.3522 53.3303 59.6008C53.4179 59.8494 53.5469 60.0459 53.7173 60.1903C53.8902 60.3323 54.1032 60.4033 54.3565 60.4033ZM59.5305 54.196V61.4687H58.0178V54.196H59.5305ZM63.2069 61.5752C62.6552 61.5752 62.1782 61.458 61.7757 61.2237C61.3757 60.9869 61.0667 60.6578 60.8489 60.2364C60.6311 59.8127 60.5222 59.3214 60.5222 58.7627C60.5222 58.1993 60.6311 57.7069 60.8489 57.2855C61.0667 56.8617 61.3757 56.5326 61.7757 56.2982C62.1782 56.0615 62.6552 55.9431 63.2069 55.9431C63.7585 55.9431 64.2343 56.0615 64.6344 56.2982C65.0369 56.5326 65.347 56.8617 65.5648 57.2855C65.7826 57.7069 65.8915 58.1993 65.8915 58.7627C65.8915 59.3214 65.7826 59.8127 65.5648 60.2364C65.347 60.6578 65.0369 60.9869 64.6344 61.2237C64.2343 61.458 63.7585 61.5752 63.2069 61.5752ZM63.214 60.4033C63.4649 60.4033 63.6744 60.3323 63.8425 60.1903C64.0106 60.0459 64.1373 59.8494 64.2225 59.6008C64.3101 59.3522 64.3539 59.0693 64.3539 58.7521C64.3539 58.4348 64.3101 58.1519 64.2225 57.9033C64.1373 57.6548 64.0106 57.4583 63.8425 57.3139C63.6744 57.1694 63.4649 57.0972 63.214 57.0972C62.9606 57.0972 62.7476 57.1694 62.5748 57.3139C62.4043 57.4583 62.2753 57.6548 62.1877 57.9033C62.1025 58.1519 62.0598 58.4348 62.0598 58.7521C62.0598 59.0693 62.1025 59.3522 62.1877 59.6008C62.2753 59.8494 62.4043 60.0459 62.5748 60.1903C62.7476 60.3323 62.9606 60.4033 63.214 60.4033ZM39.9713 73.4687L37.8904 66.196H39.57L40.7739 71.2492H40.8343L42.1624 66.196H43.6006L44.9252 71.2599H44.9891L46.1929 66.196H47.8726L45.7916 73.4687H44.2931L42.9081 68.7137H42.8513L41.4699 73.4687H39.9713ZM48.6672 73.4687V68.0141H50.18V73.4687H48.6672ZM49.4271 67.311C49.2022 67.311 49.0093 67.2364 48.8483 67.0873C48.6897 66.9358 48.6104 66.7547 48.6104 66.544C48.6104 66.3356 48.6897 66.1569 48.8483 66.0078C49.0093 65.8562 49.2022 65.7805 49.4271 65.7805C49.652 65.7805 49.8438 65.8562 50.0024 66.0078C50.1634 66.1569 50.2439 66.3356 50.2439 66.544C50.2439 66.7547 50.1634 66.9358 50.0024 67.0873C49.8438 67.2364 49.652 67.311 49.4271 67.311ZM52.9046 70.3153V73.4687H51.3918V68.0141H52.8335V68.9765H52.8975C53.0182 68.6593 53.2206 68.4083 53.5047 68.2237C53.7888 68.0366 54.1333 67.9431 54.5381 67.9431C54.9169 67.9431 55.2471 68.026 55.5289 68.1917C55.8106 68.3574 56.0296 68.5942 56.1858 68.9019C56.3421 69.2073 56.4202 69.5719 56.4202 69.9957V73.4687H54.9074V70.2656C54.9098 69.9318 54.8245 69.6713 54.6517 69.4843C54.4789 69.2949 54.241 69.2002 53.9379 69.2002C53.7343 69.2002 53.5544 69.244 53.3982 69.3316C53.2443 69.4192 53.1235 69.5471 53.036 69.7151C52.9507 69.8809 52.9069 70.0809 52.9046 70.3153ZM59.1253 70.3153V73.4687H57.6125V68.0141H59.0542V68.9765H59.1182C59.2389 68.6593 59.4413 68.4083 59.7254 68.2237C60.0095 68.0366 60.354 67.9431 60.7588 67.9431C61.1376 67.9431 61.4678 68.026 61.7496 68.1917C62.0313 68.3574 62.2503 68.5942 62.4065 68.9019C62.5628 69.2073 62.6409 69.5719 62.6409 69.9957V73.4687H61.1281V70.2656C61.1305 69.9318 61.0452 69.6713 60.8724 69.4843C60.6996 69.2949 60.4617 69.2002 60.1586 69.2002C59.955 69.2002 59.7751 69.244 59.6189 69.3316C59.465 69.4192 59.3443 69.5471 59.2567 69.7151C59.1714 69.8809 59.1276 70.0809 59.1253 70.3153ZM66.319 73.5752C65.7579 73.5752 65.2749 73.4616 64.8701 73.2343C64.4677 73.0047 64.1575 72.6803 63.9397 72.2613C63.7219 71.8399 63.613 71.3416 63.613 70.7663C63.613 70.2052 63.7219 69.7128 63.9397 69.289C64.1575 68.8652 64.4641 68.535 64.8595 68.2982C65.2572 68.0615 65.7236 67.9431 66.2586 67.9431C66.6185 67.9431 66.9535 68.0011 67.2636 68.1171C67.5761 68.2308 67.8483 68.4024 68.0803 68.632C68.3147 68.8617 68.497 69.1505 68.6272 69.4985C68.7574 69.8442 68.8225 70.249 68.8225 70.713V71.1285H64.2167V70.191H67.3985C67.3985 69.9732 67.3512 69.7802 67.2565 69.6122C67.1618 69.4441 67.0304 69.3127 66.8623 69.218C66.6966 69.1209 66.5036 69.0724 66.2835 69.0724C66.0538 69.0724 65.8502 69.1256 65.6727 69.2322C65.4975 69.3363 65.3602 69.4772 65.2607 69.6548C65.1613 69.83 65.1104 70.0253 65.108 70.2407V71.132C65.108 71.4019 65.1578 71.6351 65.2572 71.8316C65.359 72.0281 65.5022 72.1796 65.6869 72.2862C65.8715 72.3927 66.0905 72.446 66.3438 72.446C66.5119 72.446 66.6658 72.4223 66.8055 72.3749C66.9452 72.3276 67.0647 72.2566 67.1642 72.1619C67.2636 72.0672 67.3393 71.9512 67.3914 71.8139L68.7906 71.9062C68.7195 72.2424 68.574 72.5359 68.3538 72.7869C68.136 73.0355 67.8543 73.2296 67.5086 73.3693C67.1653 73.5066 66.7688 73.5752 66.319 73.5752ZM69.8097 73.4687V68.0141H71.2764V68.9658H71.3332C71.4326 68.6273 71.5995 68.3716 71.8339 68.1988C72.0683 68.0236 72.3382 67.936 72.6436 67.936C72.7193 67.936 72.801 67.9408 72.8886 67.9502C72.9762 67.9597 73.0531 67.9727 73.1194 67.9893V69.3316C73.0484 69.3103 72.9501 69.2914 72.8247 69.2748C72.6992 69.2582 72.5844 69.2499 72.4802 69.2499C72.2577 69.2499 72.0588 69.2985 71.8836 69.3955C71.7108 69.4902 71.5735 69.6228 71.4717 69.7933C71.3722 69.9637 71.3225 70.1602 71.3225 70.3828V73.4687H69.8097Z" fill="white"/>
</svg>
