<svg width="19" height="19" viewBox="0 0 19 19" fill="none" xmlns="http://www.w3.org/2000/svg">
<g clip-path="url(#clip0_1976_5859)">
<path d="M16.7511 3.54358C13.7897 0.0367457 8.74658 -0.861301 4.75733 1.40608L4.31573 0.916238C3.88897 0.444949 3.16162 0.407839 2.69034 0.834597C2.53819 0.971902 2.42686 1.14632 2.36377 1.33928L1.16143 5.08733C0.964749 5.69221 1.29873 6.34163 1.90362 6.5346C2.09659 6.59768 2.3044 6.60882 2.50108 6.56428L6.34932 5.73303C6.96905 5.59944 7.36612 4.98714 7.23252 4.36741C7.18799 4.16702 7.09522 3.98518 6.95791 3.83303L6.5126 3.34319C7.61846 2.82737 8.83936 2.60843 10.0565 2.71233C13.9048 3.03889 16.7733 6.43069 16.4468 10.2826C16.3948 10.8838 16.2687 11.6817 16.0794 12.3162C15.994 12.5983 16.0942 12.9063 16.328 13.0844L17.2558 13.7821C17.5675 14.0196 18.0091 13.9565 18.2429 13.6485C18.2874 13.5891 18.3208 13.526 18.3468 13.4555C18.6771 12.5129 18.8849 11.4219 18.9628 10.4942C19.1855 7.97444 18.3876 5.46956 16.7511 3.54358Z" fill="white"/>
<path d="M7.29963 16.3502C6.68732 16.1684 6.10471 15.9012 5.56662 15.5561C5.27346 15.3705 4.89123 15.4336 4.676 15.7082L3.94494 16.6397C3.71486 16.9328 3.76682 17.3522 4.05998 17.5822C4.07482 17.5934 4.08596 17.6045 4.1008 17.6119C4.89123 18.1315 5.75217 18.5285 6.66135 18.792C7.0176 18.8959 7.3924 18.6918 7.49631 18.3356C7.50002 18.3207 7.50373 18.3059 7.50744 18.291L7.7635 17.1369C7.83771 16.7955 7.63732 16.4541 7.29963 16.3502Z" fill="white"/>
<path d="M2.52715 10.3309C2.49746 9.98207 2.20801 9.71117 1.85547 9.71488H0.67168C0.300586 9.71488 0 10.0155 0 10.3866V10.4348C0.0667969 11.37 0.267188 12.294 0.59375 13.1772C0.723633 13.526 1.10957 13.7004 1.4584 13.5705C1.47324 13.5631 1.48809 13.5594 1.50293 13.552L2.5791 13.0547C2.89453 12.9063 3.04668 12.5463 2.92793 12.2161C2.71641 11.6075 2.5791 10.9729 2.52715 10.3309Z" fill="white"/>
<path d="M14.2317 15.6825C14.0127 15.4116 13.6268 15.3485 13.3336 15.5415C12.803 15.894 12.224 16.1723 11.6155 16.3727C11.2852 16.4804 11.0885 16.8218 11.1664 17.1595L11.4299 18.3136C11.5115 18.6772 11.8715 18.9036 12.2352 18.8182C12.2537 18.8145 12.2686 18.8108 12.2871 18.8034C13.1889 18.5214 14.0424 18.1095 14.8217 17.5788C15.1297 17.371 15.2113 16.9516 14.9998 16.6436C14.9887 16.6288 14.9813 16.6139 14.9701 16.6028L14.2317 15.6825Z" fill="white"/>
</g>
<defs>
<clipPath id="clip0_1976_5859">
<rect width="19" height="19" fill="white"/>
</clipPath>
</defs>
</svg>
