<svg width="25" height="25" viewBox="0 0 25 25" fill="none" xmlns="http://www.w3.org/2000/svg">
<g clip-path="url(#clip0_699_1385)">
<path d="M12.4999 2.08367C15.2908 2.09285 17.9622 3.21806 19.9184 5.20858H16.6664C16.0912 5.20858 15.6248 5.67492 15.6248 6.25019C15.6248 6.82547 16.0912 7.29181 16.6664 7.29181H20.9819C22.05 7.29123 22.9157 6.42553 22.9162 5.3575V1.04201C22.9162 0.466733 22.4499 0.000389987 21.8746 0.000389987C21.2994 0.000389987 20.833 0.466733 20.833 1.04201V3.20654C15.7114 -1.40596 7.82043 -0.99328 3.20792 4.12829C1.40285 6.13262 0.295709 8.66784 0.0524059 11.3542C-0.00110808 11.931 0.423146 12.442 0.999984 12.4955C1.03123 12.4984 1.06263 12.4999 1.09407 12.5C1.62203 12.5067 2.06836 12.1105 2.12427 11.5854C2.60482 6.21138 7.10443 2.09075 12.4999 2.08367Z" fill="white"/>
<path d="M23.9067 12.5001C23.3788 12.4933 22.9325 12.8896 22.8766 13.4147C22.3795 19.1378 17.337 23.3744 11.6138 22.8773C9.13752 22.6622 6.82017 21.5675 5.0813 19.7915H8.3333C8.90858 19.7915 9.37492 19.3252 9.37492 18.7499C9.37492 18.1746 8.90858 17.7083 8.3333 17.7083H4.01781C2.95007 17.7077 2.08408 18.5728 2.0835 19.6405C2.0835 19.6412 2.0835 19.6419 2.0835 19.6426V23.9581C2.0835 24.5334 2.54984 24.9997 3.12511 24.9997C3.70039 24.9997 4.16673 24.5334 4.16673 23.9581V21.7935C9.2883 26.406 17.1793 25.9934 21.7918 20.8718C23.5969 18.8675 24.704 16.3322 24.9473 13.6458C25.0009 13.069 24.5766 12.558 23.9998 12.5045C23.9689 12.5017 23.9378 12.5002 23.9067 12.5001Z" fill="white"/>
</g>
<defs>
<clipPath id="clip0_699_1385">
<rect width="25" height="25" fill="white"/>
</clipPath>
</defs>
</svg>
