<?xml version="1.0" encoding="UTF-8"?>
<svg xmlns="http://www.w3.org/2000/svg" xmlns:xlink="http://www.w3.org/1999/xlink" width="20px" height="20px" viewBox="0 0 20 20" version="1.1">
<g id="surface1">
<path style=" stroke:none;fill-rule:nonzero;fill:rgb(100%,1.568627%,12.54902%);fill-opacity:1;" d="M 20 10 C 20 15.523438 15.523438 20 10 20 C 4.476562 20 0 15.523438 0 10 C 0 4.476562 4.476562 0 10 0 C 15.523438 0 20 4.476562 20 10 Z M 20 10 "/>
<path style=" stroke:none;fill-rule:nonzero;fill:rgb(100%,100%,100%);fill-opacity:1;" d="M 7.085938 12.65625 C 6.488281 12.65625 6 12.515625 5.621094 12.234375 C 5.242188 11.953125 5.054688 11.542969 5.054688 11.019531 C 5.054688 10.90625 5.066406 10.777344 5.09375 10.617188 C 5.15625 10.257812 5.246094 9.824219 5.367188 9.316406 C 5.707031 7.941406 6.589844 7.253906 8.003906 7.253906 C 8.386719 7.253906 8.734375 7.316406 9.039062 7.449219 C 9.34375 7.570312 9.585938 7.765625 9.761719 8.019531 C 9.9375 8.273438 10.023438 8.570312 10.023438 8.921875 C 10.023438 9.023438 10.011719 9.15625 9.988281 9.316406 C 9.910156 9.761719 9.824219 10.195312 9.714844 10.617188 C 9.539062 11.300781 9.238281 11.816406 8.808594 12.15625 C 8.378906 12.492188 7.804688 12.65625 7.085938 12.65625 Z M 7.191406 11.574219 C 7.472656 11.574219 7.707031 11.492188 7.902344 11.328125 C 8.105469 11.164062 8.246094 10.910156 8.332031 10.566406 C 8.449219 10.097656 8.535156 9.6875 8.597656 9.335938 C 8.617188 9.230469 8.628906 9.125 8.628906 9.011719 C 8.628906 8.554688 8.390625 8.328125 7.914062 8.328125 C 7.636719 8.328125 7.394531 8.410156 7.195312 8.574219 C 7 8.738281 6.859375 8.992188 6.777344 9.335938 C 6.683594 9.671875 6.597656 10.078125 6.503906 10.566406 C 6.484375 10.667969 6.472656 10.773438 6.472656 10.882812 C 6.46875 11.347656 6.710938 11.574219 7.191406 11.574219 Z M 7.191406 11.574219 "/>
<path style=" stroke:none;fill-rule:nonzero;fill:rgb(100%,100%,100%);fill-opacity:1;" d="M 10.371094 12.585938 C 10.316406 12.585938 10.277344 12.566406 10.242188 12.53125 C 10.21875 12.492188 10.210938 12.449219 10.21875 12.394531 L 11.257812 7.515625 C 11.265625 7.460938 11.292969 7.414062 11.339844 7.378906 C 11.382812 7.34375 11.433594 7.328125 11.484375 7.328125 L 13.480469 7.328125 C 14.035156 7.328125 14.480469 7.445312 14.816406 7.671875 C 15.15625 7.902344 15.328125 8.234375 15.328125 8.671875 C 15.328125 8.796875 15.3125 8.929688 15.285156 9.0625 C 15.160156 9.640625 14.90625 10.0625 14.523438 10.339844 C 14.148438 10.617188 13.632812 10.753906 12.976562 10.753906 L 11.964844 10.753906 L 11.621094 12.394531 C 11.609375 12.453125 11.585938 12.496094 11.535156 12.53125 C 11.492188 12.566406 11.445312 12.585938 11.390625 12.585938 Z M 13.027344 9.714844 C 13.238281 9.714844 13.421875 9.660156 13.574219 9.542969 C 13.734375 9.429688 13.839844 9.265625 13.890625 9.046875 C 13.90625 8.964844 13.914062 8.886719 13.914062 8.824219 C 13.914062 8.679688 13.871094 8.566406 13.789062 8.492188 C 13.703125 8.410156 13.554688 8.371094 13.351562 8.371094 L 12.453125 8.371094 L 12.167969 9.714844 Z M 13.027344 9.714844 "/>
</g>
</svg>
