<svg width="16" height="16" viewBox="0 0 16 16" fill="none" xmlns="http://www.w3.org/2000/svg">
<g clip-path="url(#clip0_3073_6936)">
<path d="M14.7564 3.82844L8.23416 0.0628125C8.08913 -0.0209375 7.91045 -0.0209375 7.76541 0.0628125L1.24316 3.82844C1.09813 3.91216 1.00879 4.06691 1.00879 4.23438V11.7656C1.00879 11.9331 1.09813 12.0878 1.24316 12.1716L7.76541 15.9372C7.91045 16.0209 8.08913 16.0209 8.23416 15.9372L14.7564 12.1716C14.9014 12.0878 14.9908 11.9331 14.9908 11.7656V4.23438C14.9908 4.06691 14.9015 3.91216 14.7564 3.82844ZM6.24251 9.50625C6.24251 9.76513 6.03263 9.975 5.77376 9.975H5.27166C5.08241 9.975 4.91176 9.86122 4.83898 9.68653L3.98313 7.6325V9.50625C3.96007 10.1275 3.06848 10.1271 3.04563 9.50625V6.49375C3.04563 6.23488 3.25551 6.025 3.51438 6.025H4.01648C4.20573 6.025 4.37638 6.13878 4.44916 6.31347L5.30501 8.36753V6.49375C5.32807 5.87247 6.21966 5.87294 6.24251 6.49375V9.50625ZM9.50604 6.9625H7.99979V7.78228H9.00395C9.62523 7.80534 9.62476 8.69694 9.00395 8.71978H7.99979V9.50625C7.97673 10.1275 7.08513 10.1271 7.06229 9.50625V6.49375C7.06229 6.23488 7.27216 6.025 7.53104 6.025H9.50604C10.1273 6.04806 10.1269 6.93966 9.50604 6.9625ZM12.7696 6.9625H12.2342V9.50625C12.2111 10.1275 11.3195 10.1271 11.2967 9.50625V6.9625H10.7613C10.14 6.93944 10.1404 6.04784 10.7613 6.025H12.7696C13.3909 6.04806 13.3904 6.93966 12.7696 6.9625Z" fill="white"/>
</g>
<defs>
<clipPath id="clip0_3073_6936">
<rect width="16" height="16" fill="white"/>
</clipPath>
</defs>
</svg>
