<svg width="14" height="14" viewBox="0 0 14 14" fill="none" xmlns="http://www.w3.org/2000/svg">
<path d="M0.265625 11.8199H11.1877V5.56836H0.265625V11.8199ZM1.27042 7.32828C1.38562 7.32828 1.49969 7.30558 1.60611 7.26149C1.71254 7.21739 1.80924 7.15277 1.89068 7.07129C1.97213 6.98982 2.03672 6.8931 2.08078 6.78666C2.12484 6.68022 2.1475 6.56614 2.14746 6.45094H9.30554C9.30554 6.68363 9.39797 6.90678 9.56251 7.07131C9.72704 7.23584 9.95019 7.32828 10.1829 7.32828V10.0577C9.95019 10.0577 9.72704 10.1501 9.56251 10.3147C9.39797 10.4792 9.30554 10.7023 9.30554 10.935H2.14746C2.1475 10.8198 2.12484 10.7057 2.08078 10.5993C2.03672 10.4929 1.97213 10.3961 1.89068 10.3147C1.80924 10.2332 1.71254 10.1686 1.60611 10.1245C1.49969 10.0804 1.38562 10.0577 1.27042 10.0577V7.32828Z" fill="#47C4B8"/>
<path d="M5.72616 10.0099C6.45296 10.0099 7.04216 9.42074 7.04216 8.69393C7.04216 7.96712 6.45296 7.37793 5.72616 7.37793C4.99935 7.37793 4.41016 7.96712 4.41016 8.69393C4.41016 9.42074 4.99935 10.0099 5.72616 10.0099Z" fill="#47C4B8"/>
<path d="M0.839844 5.1301H11.6266V10.1759L12.5074 10.0826L11.8541 3.86719L0.839844 5.1301Z" fill="#47C4B8"/>
<path d="M12.5045 2.18457L1.43164 4.52199L12.242 3.38624L12.7845 8.5429L13.6828 8.32707L12.5045 2.18457Z" fill="#47C4B8"/>
</svg>
