<svg width="52" height="52" viewBox="0 0 52 52" fill="none" xmlns="http://www.w3.org/2000/svg">
<path d="M3.25 3.25V4.875V17.875V19.5H4.875H17.875H19.5V17.875V4.875V3.25H17.875H4.875H3.25ZM6.5 6.5H16.25V16.25H6.5V6.5Z" fill="white"/>
<path d="M13 9.75H9.75V13H13V9.75Z" fill="white"/>
<path d="M32.5 3.25V4.875V17.875V19.5H34.125H47.125H48.75V17.875V4.875V3.25H47.125H34.125H32.5ZM35.75 6.5H45.5V16.25H35.75V6.5Z" fill="white"/>
<path d="M42.25 9.75H39V13H42.25V9.75Z" fill="white"/>
<path d="M3.25 32.5V34.125V47.125V48.75H4.875H17.875H19.5V47.125V34.125V32.5H17.875H4.875H3.25ZM6.5 35.75H16.25V45.5H6.5V35.75Z" fill="white"/>
<path d="M13 39H9.75V42.25H13V39Z" fill="white"/>
<path d="M22.75 3.25V4.875V8.125V11.375V13H24.375H26V16.25H24.375H22.75V17.875V21.125V22.75H26V21.125V19.5H27.625H29.25V17.875V11.375V9.75H27.625H26V8.125V6.5H27.625H29.25V3.25H27.625H24.375H22.75Z" fill="white"/>
<path d="M6.5 22.75H3.25V26H6.5V22.75Z" fill="white"/>
<path d="M9.75 26H6.5V29.25H9.75V26Z" fill="white"/>
<path d="M9.75 22.75V26H11.375H13V27.625V29.25H14.625H21.125H22.75V30.875V32.5H26V30.875V27.625V26H24.375H21.125H16.25V24.375V22.75H14.625H11.375H9.75Z" fill="white"/>
<path d="M26 35.75H22.75V39H26V35.75Z" fill="white"/>
<path d="M29.25 32.5H26V35.75H29.25V32.5Z" fill="white"/>
<path d="M29.25 32.5H26V35.75H29.25V32.5Z" fill="white"/>
<path d="M32.5 29.25H29.25V32.5H32.5V29.25Z" fill="white"/>
<path d="M26 45.5V48.75H27.625H34.125H35.75V45.5H34.125H27.625H26Z" fill="white"/>
<path d="M42.25 26V27.625V34.125V35.75H45.5V34.125V27.625V26H42.25Z" fill="white"/>
<path d="M32.5 22.75V26H34.125H35.75V27.625V29.25H39V27.625V24.375V22.75H37.375H34.125H32.5ZM32.5 32.5V35.75H39V40.625V42.25H40.625H43.875H45.5V39H43.875H42.25V34.125V32.5H40.625H39H37.375H32.5Z" fill="white"/>
<path d="M29.25 22.75H26V26H29.25V22.75Z" fill="white"/>
<path d="M32.5 35.75H29.25V39H32.5V35.75Z" fill="white"/>
<path d="M35.75 39H32.5V42.25H35.75V39Z" fill="white"/>
<path d="M35.75 39H32.5V42.25H35.75V39Z" fill="white"/>
<path d="M45.5 45.5H42.25V48.75H45.5V45.5Z" fill="white"/>
<path d="M35.75 42.25V43.875V47.125V48.75H39V47.125V43.875V42.25H35.75Z" fill="white"/>
<path d="M22.75 39V40.625V43.875V45.5H26V43.875V42.25H27.625H29.25V39H27.625H24.375H22.75Z" fill="white"/>
<path d="M45.5 22.75V24.375V27.625V29.25H48.75V27.625V24.375V22.75H45.5Z" fill="white"/>
<path d="M48.75 35.75H45.5V39H48.75V35.75Z" fill="white"/>
<path d="M48.75 42.25H45.5V45.5H48.75V42.25Z" fill="white"/>
</svg>
