<svg width="16" height="17" viewBox="0 0 16 17" fill="none" xmlns="http://www.w3.org/2000/svg">
<g clip-path="url(#clip0_3054_2855)">
<path d="M8 0.5C3.58189 0.5 0 4.08189 0 8.5C0 12.9181 3.58189 16.5 8 16.5C12.4181 16.5 16 12.9181 16 8.5C16 4.08189 12.4181 0.5 8 0.5ZM10.2979 11.6539C9.94897 12.0786 9.49465 12.365 8.96461 12.5099C8.73416 12.5724 8.62881 12.6942 8.64198 12.9346C8.65185 13.1716 8.64197 13.4053 8.63868 13.6424C8.63868 13.8531 8.53004 13.965 8.32263 13.9716C8.18765 13.9749 8.05267 13.9782 7.9177 13.9782C7.79918 13.9782 7.68066 13.9782 7.56214 13.9749C7.33827 13.9716 7.23292 13.8432 7.23292 13.6259C7.22963 13.4547 7.22963 13.2802 7.22963 13.1091C7.22634 12.7272 7.21317 12.714 6.84774 12.6547C6.38025 12.579 5.91934 12.4737 5.49136 12.2663C5.15556 12.1016 5.11934 12.0193 5.21481 11.6638C5.28724 11.4004 5.35967 11.137 5.44198 10.877C5.50123 10.686 5.5572 10.6004 5.65926 10.6004C5.71852 10.6004 5.79424 10.63 5.8963 10.6827C6.37037 10.9296 6.87407 11.0679 7.40411 11.1337C7.493 11.1436 7.58189 11.1502 7.67078 11.1502C7.9177 11.1502 8.15802 11.1041 8.39177 11.0021C8.98107 10.7453 9.07325 10.0638 8.57613 9.65556C8.40823 9.51728 8.21399 9.41523 8.01317 9.32634C7.4963 9.09918 6.95967 8.92798 6.47243 8.63498C5.6823 8.16091 5.18189 7.51235 5.24115 6.55103C5.307 5.46461 5.92263 4.78642 6.92016 4.42428C7.33169 4.27613 7.33498 4.27942 7.33498 3.85144C7.33498 3.70658 7.33169 3.56173 7.33827 3.41358C7.34815 3.09095 7.40082 3.03498 7.72346 3.0251C7.75967 3.0251 7.79918 3.0251 7.83539 3.0251C7.89794 3.0251 7.96049 3.0251 8.02304 3.0251C8.04938 3.0251 8.07572 3.0251 8.09877 3.0251C8.71111 3.0251 8.71111 3.05144 8.7144 3.71317C8.7177 4.20041 8.7177 4.20041 9.20165 4.27613C9.57366 4.33539 9.92593 4.44403 10.2683 4.59547C10.456 4.67778 10.5284 4.80946 10.4691 5.01029C10.3835 5.30658 10.3012 5.60617 10.2091 5.89918C10.1498 6.07695 10.0938 6.15926 9.98848 6.15926C9.92922 6.15926 9.85679 6.13621 9.76461 6.09012C9.29053 5.85967 8.79342 5.74774 8.27325 5.74774C8.20741 5.74774 8.13827 5.75103 8.07243 5.75432C7.9177 5.7642 7.76625 5.78395 7.6214 5.8465C7.10782 6.07037 7.02551 6.63663 7.46337 6.9856C7.68395 7.16337 7.93745 7.28848 8.19753 7.39712C8.65185 7.58477 9.10617 7.76584 9.53745 8.00288C10.8938 8.76008 11.2626 10.4819 10.2979 11.6539Z" fill="white"/>
</g>
<defs>
<clipPath id="clip0_3054_2855">
<rect width="16" height="16" fill="white" transform="translate(0 0.5)"/>
</clipPath>
</defs>
</svg>
