<svg width="16" height="17" viewBox="0 0 16 17" fill="none" xmlns="http://www.w3.org/2000/svg">
<g clip-path="url(#clip0_2672_693)">
<path d="M10.6445 13.4619H5.33716C3.96001 13.4619 2.8396 14.5823 2.8396 15.9595V16.0219C2.8396 16.2805 3.04927 16.4902 3.30789 16.4902H12.6737C12.9324 16.4902 13.142 16.2805 13.142 16.0219V15.9595C13.142 14.5823 12.0216 13.4619 10.6445 13.4619Z" fill="white"/>
<path d="M12.308 10.9976L11.8233 10.0832L10.9088 9.59848C10.4481 9.35425 10.1619 8.87862 10.1619 8.35723C10.1619 7.83583 10.4481 7.3602 10.9088 7.116L11.8233 6.63122L12.308 5.71677C12.467 5.41669 12.7246 5.19135 13.0288 5.07022C11.9325 3.45776 10.0834 2.39648 7.99088 2.39648C4.63407 2.39648 1.90308 5.12747 1.90308 8.48429C1.90308 10.2163 2.63018 11.7817 3.79513 12.8913C4.25912 12.6572 4.78298 12.525 5.33722 12.525H10.6445C11.1988 12.525 11.7227 12.6572 12.1866 12.8913C12.5607 12.535 12.8894 12.1314 13.1636 11.6907C12.801 11.5876 12.4901 11.3412 12.308 10.9976ZM7.29106 4.62649C5.45651 4.62649 3.96397 6.11904 3.96397 7.95359C3.96397 7.98428 3.96441 8.01494 3.96525 8.04562C3.97237 8.30415 3.76854 8.51951 3.51001 8.52659C3.50564 8.52672 3.50123 8.52678 3.49689 8.52678C3.2442 8.52678 3.036 8.32551 3.02904 8.07135C3.02795 8.03211 3.02742 7.99283 3.02742 7.95359C3.02742 5.6026 4.94011 3.68991 7.2911 3.68991C7.54975 3.68991 7.75939 3.89958 7.75939 4.1582C7.75939 4.41682 7.54969 4.62649 7.29106 4.62649Z" fill="white"/>
<path d="M15.7509 7.94421L14.5824 7.32475L13.9629 6.1562C13.8817 6.00301 13.7225 5.90723 13.5492 5.90723C13.3758 5.90723 13.2166 6.00301 13.1354 6.1562L12.5159 7.32475L11.3474 7.94421C11.1942 8.02541 11.0984 8.1846 11.0984 8.35796C11.0984 8.53132 11.1942 8.69051 11.3474 8.77171L12.5159 9.39117L13.1354 10.5597C13.2166 10.7129 13.3758 10.8087 13.5492 10.8087C13.7225 10.8087 13.8817 10.7129 13.9629 10.5597L14.5824 9.39117L15.7509 8.77171C15.9041 8.69051 15.9999 8.53132 15.9999 8.35796C15.9999 8.1846 15.9041 8.02541 15.7509 7.94421Z" fill="white"/>
<path d="M2.1317 3.77348L2.57683 3.08656L3.26375 2.64147C3.39696 2.55514 3.47739 2.40719 3.47739 2.24847C3.47739 2.08972 3.39696 1.9418 3.26375 1.85548L2.5768 1.41032L2.1317 0.723401C2.04538 0.590187 1.89746 0.509766 1.73871 0.509766C1.57999 0.509766 1.43204 0.590187 1.34572 0.723401L0.900558 1.41032L0.213635 1.85545C0.0804215 1.94177 0 2.08972 0 2.24844C0 2.40719 0.0804215 2.55511 0.213635 2.64143L0.900558 3.08653L1.34565 3.77345C1.43198 3.90667 1.57993 3.98709 1.73865 3.98709C1.89737 3.98709 2.04538 3.9067 2.1317 3.77348Z" fill="white"/>
</g>
<defs>
<clipPath id="clip0_2672_693">
<rect width="16" height="16" fill="white" transform="translate(0 0.5)"/>
</clipPath>
</defs>
</svg>
