<svg width="16" height="17" viewBox="0 0 16 17" fill="none" xmlns="http://www.w3.org/2000/svg">
<path d="M7.53125 5.21875V6.24259C6.98681 6.43675 6.59375 6.95219 6.59375 7.5625C6.59375 8.33794 7.22456 8.96875 8 8.96875C8.25863 8.96875 8.46875 9.17887 8.46875 9.4375C8.46875 9.69613 8.25863 9.90625 8 9.90625C7.74137 9.90625 7.53125 9.69613 7.53125 9.4375H6.59375C6.59375 10.0478 6.98681 10.5633 7.53125 10.7574V11.7812H8.46875V10.7574C9.01319 10.5633 9.40625 10.0478 9.40625 9.4375C9.40625 8.66206 8.77544 8.03125 8 8.03125C7.74137 8.03125 7.53125 7.82113 7.53125 7.5625C7.53125 7.30387 7.74137 7.09375 8 7.09375C8.25863 7.09375 8.46875 7.30387 8.46875 7.5625H9.40625C9.40625 6.95219 9.01319 6.43675 8.46875 6.24259V5.21875H7.53125Z" fill="white"/>
<path d="M8.46875 0.5V4.32862C10.4166 4.54778 11.9547 6.08597 12.1744 8.03125H16C15.7651 4.00631 12.4943 0.734844 8.46875 0.5Z" fill="white"/>
<path d="M4.71853 11.1186C4.14122 10.3968 3.78125 9.49409 3.78125 8.5C3.78125 6.33416 5.42766 4.56528 7.53125 4.32862V0.5C3.34975 0.743938 0 4.25728 0 8.5C0 10.5317 0.797937 12.3799 2.04966 13.7875L4.71853 11.1186Z" fill="white"/>
<path d="M15.9993 8.96875H12.1715C11.9348 11.0723 10.166 12.7188 8.00012 12.7188C7.00602 12.7188 6.10337 12.3588 5.38152 11.7815L2.71265 14.4503C4.12018 15.7021 5.9684 16.5 8.00012 16.5C12.2428 16.5 15.7553 13.1502 15.9993 8.96875Z" fill="white"/>
</svg>
