<svg width="16" height="17" viewBox="0 0 16 17" fill="none" xmlns="http://www.w3.org/2000/svg">
<path d="M12 9.83292C11.9646 9.83292 11.9333 9.84225 11.8966 9.84359L9.87796 6.39159C10.2532 6.01959 10.5095 5.54448 10.6143 5.02656C10.7191 4.50864 10.6677 3.97127 10.4665 3.48264C10.2654 2.994 9.92361 2.57615 9.48458 2.28209C9.04554 1.98804 8.52904 1.83105 8.00063 1.83105C7.47222 1.83105 6.95571 1.98804 6.51668 2.28209C6.07764 2.57615 5.73586 2.994 5.53472 3.48264C5.33357 3.97127 5.28213 4.50864 5.38692 5.02656C5.49172 5.54448 5.74802 6.01959 6.12329 6.39159L4.11063 9.84426C4.07263 9.84225 4.03796 9.83292 3.99996 9.83292C3.50081 9.83118 3.01119 9.96956 2.58681 10.2323C2.16242 10.4951 1.82031 10.8717 1.59939 11.3193C1.37846 11.7669 1.2876 12.2675 1.33714 12.7642C1.38668 13.2609 1.57463 13.7337 1.8796 14.1289C2.18458 14.524 2.59434 14.8256 3.06226 14.9994C3.53019 15.1732 4.03749 15.2121 4.52646 15.1119C5.01544 15.0116 5.46644 14.776 5.82817 14.4321C6.1899 14.0881 6.44784 13.6496 6.57263 13.1663H9.42729C9.55272 13.6482 9.81077 14.0852 10.1721 14.4279C10.5335 14.7705 10.9837 15.0049 11.4716 15.1045C11.9595 15.204 12.4656 15.1648 12.9323 14.9912C13.399 14.8176 13.8077 14.5167 14.112 14.1224C14.4162 13.7282 14.6038 13.2566 14.6535 12.7611C14.7032 12.2656 14.6129 11.7662 14.3929 11.3194C14.173 10.8727 13.8321 10.4965 13.4091 10.2338C12.9861 9.97102 12.4979 9.83214 12 9.83292ZM9.42729 11.8329H6.57263C6.40333 11.1774 5.99068 10.611 5.41863 10.2489L7.28063 7.05559C7.74944 7.2036 8.25248 7.2036 8.72129 7.05559L10.588 10.2463C10.0126 10.6075 9.59732 11.1752 9.42729 11.8329Z" fill="white"/>
</svg>
