<svg width="16" height="15" viewBox="0 0 16 15" fill="none" xmlns="http://www.w3.org/2000/svg">
<path d="M14.9556 6.37536L11.8411 9.41136L12.5766 13.6994C12.6086 13.8869 12.5316 14.0764 12.3776 14.1884C12.2906 14.2519 12.1871 14.2839 12.0836 14.2839C12.0041 14.2839 11.9241 14.2649 11.8511 14.2264L8.00008 12.2019L4.14958 14.2259C3.98158 14.3149 3.77708 14.3004 3.62308 14.1879C3.46908 14.0759 3.39208 13.8864 3.42408 13.6989L4.15958 9.41086L1.04458 6.37536C0.908578 6.24236 0.859078 6.04336 0.918078 5.86286C0.977078 5.68236 1.13358 5.54986 1.32208 5.52236L5.62658 4.89736L7.55158 0.996359C7.72008 0.654859 8.28008 0.654859 8.44858 0.996359L10.3736 4.89736L14.6781 5.52236C14.8666 5.54986 15.0231 5.68186 15.0821 5.86286C15.1411 6.04386 15.0916 6.24186 14.9556 6.37536Z" fill="white"/>
</svg>
