<svg width="16" height="17" viewBox="0 0 16 17" fill="none" xmlns="http://www.w3.org/2000/svg">
<path d="M15.6466 15.5613L15.6261 15.5561L15.2047 13.8707C15.1724 13.7416 15.0868 13.6324 14.9693 13.5701C14.7914 13.476 10.7134 11.353 8 12.929C5.28648 11.353 1.20866 13.4759 1.03075 13.5701C0.913193 13.6324 0.8276 13.7416 0.795351 13.8707L0.373856 15.5561L0.353388 15.5613C0.102485 15.6251 -0.0492002 15.8802 0.0145489 16.1311C0.0684857 16.3433 0.259202 16.4845 0.468511 16.4845C0.50673 16.4845 0.545573 16.4798 0.584322 16.4699L5.81744 15.1398C6.23859 15.9399 7.06848 16.4531 7.99997 16.4531C8.93146 16.4531 9.76135 15.94 10.1825 15.1398L15.4156 16.4699C15.4544 16.4798 15.4932 16.4845 15.5314 16.4845C15.7407 16.4845 15.9315 16.3432 15.9854 16.1311C16.0492 15.8802 15.8975 15.6251 15.6466 15.5613Z" fill="white"/>
<path d="M1.59177 11.9441C1.60814 11.9409 2.19391 11.829 3.00293 11.8014C3.78699 11.5818 4.69282 11.4111 5.61509 11.4111H5.61568H5.61571C5.92777 11.4111 6.2292 11.4312 6.51982 11.4703C5.87461 11.164 5.10691 10.9688 4.22823 10.8924C2.74088 10.7631 1.46196 11.014 1.40824 11.0247C1.15452 11.0755 0.990087 11.3222 1.04062 11.5759C1.09121 11.8297 1.3379 11.9944 1.59177 11.9441Z" fill="white"/>
<path d="M10.3843 11.4111C11.3067 11.4111 12.2126 11.5818 12.9967 11.8014C13.8059 11.829 14.3918 11.9409 14.4083 11.9441C14.6621 11.9949 14.9087 11.8301 14.9595 11.5763C15.0102 11.3225 14.8456 11.0756 14.5917 11.0248C14.538 11.014 13.259 10.763 11.7718 10.8925C10.8931 10.9689 10.1255 11.164 9.48022 11.4703C9.77085 11.4312 10.0723 11.4111 10.3843 11.4111Z" fill="white"/>
<path d="M13.375 2.5781H13.7812V2.98434C13.7812 3.24322 13.9911 3.45309 14.25 3.45309C14.5089 3.45309 14.7187 3.24322 14.7187 2.98434V2.5781H15.125C15.3838 2.5781 15.5937 2.36823 15.5937 2.10936C15.5937 1.85049 15.3838 1.64061 15.125 1.64061H14.7187V1.23437C14.7187 0.975497 14.5089 0.765625 14.25 0.765625C13.9911 0.765625 13.7812 0.975497 13.7812 1.23437V1.64061H13.375C13.1161 1.64061 12.9062 1.85049 12.9062 2.10936C12.9062 2.36823 13.1161 2.5781 13.375 2.5781Z" fill="white"/>
<path d="M10.5003 9.70336C10.5604 9.70336 10.6215 9.69173 10.6804 9.66717L13.6804 8.41719C13.9193 8.31762 14.0323 8.04319 13.9327 7.80423C13.8331 7.56529 13.5587 7.45217 13.3198 7.55185L10.3198 8.80184C10.0809 8.9014 9.96785 9.17583 10.0674 9.4148C10.1424 9.59479 10.3167 9.70336 10.5003 9.70336Z" fill="white"/>
<path d="M8.89151 9.19035C8.92804 9.19904 8.96454 9.20323 9.00048 9.20323C9.21254 9.20323 9.40478 9.05826 9.45606 8.84295L10.706 3.59302C10.766 3.34115 10.6105 3.08844 10.3586 3.02847C10.1066 2.96853 9.85406 3.12406 9.79409 3.37587L8.54411 8.6258C8.48414 8.87764 8.63967 9.13039 8.89151 9.19035Z" fill="white"/>
<path d="M6.536 8.80069C6.56941 9.0345 6.76994 9.20322 6.99946 9.20322C7.02153 9.20322 7.04387 9.20166 7.06634 9.19847C7.32262 9.16184 7.50068 8.92441 7.46411 8.66813L6.96412 5.16818C6.9275 4.9119 6.68975 4.73375 6.43378 4.7704C6.17751 4.80703 5.99945 5.04446 6.03601 5.30074L6.536 8.80069Z" fill="white"/>
<path d="M1.66854 5.9029C1.48549 6.08593 1.48549 6.38273 1.66854 6.56579L4.6685 9.56575C4.76003 9.65728 4.88 9.70306 4.99994 9.70306C5.11987 9.70306 5.23987 9.65728 5.33137 9.56575C5.51443 9.38272 5.51443 9.08592 5.33137 8.90286L2.33141 5.9029C2.14841 5.71987 1.8516 5.71987 1.66854 5.9029Z" fill="white"/>
<path d="M12.25 5.70312C12.5089 5.70312 12.7188 5.49326 12.7188 5.23438C12.7188 4.97549 12.5089 4.76562 12.25 4.76562C11.9911 4.76562 11.7812 4.97549 11.7812 5.23438C11.7812 5.49326 11.9911 5.70312 12.25 5.70312Z" fill="white"/>
<path d="M8 2.95312C8.25888 2.95312 8.46875 2.74326 8.46875 2.48438C8.46875 2.22549 8.25888 2.01562 8 2.01562C7.74112 2.01562 7.53125 2.22549 7.53125 2.48438C7.53125 2.74326 7.74112 2.95312 8 2.95312Z" fill="white"/>
<path d="M0.75 9.45312C1.00888 9.45312 1.21875 9.24326 1.21875 8.98438C1.21875 8.72549 1.00888 8.51562 0.75 8.51562C0.491117 8.51562 0.28125 8.72549 0.28125 8.98438C0.28125 9.24326 0.491117 9.45312 0.75 9.45312Z" fill="white"/>
<path d="M1.49998 3.45308C2.31114 3.45308 2.96871 2.79551 2.96871 1.98435C2.96871 1.1732 2.31114 0.515625 1.49998 0.515625C0.688823 0.515625 0.03125 1.1732 0.03125 1.98435C0.03125 2.79551 0.688823 3.45308 1.49998 3.45308Z" fill="white"/>
</svg>
