<svg width="16" height="15" viewBox="0 0 16 15" fill="none" xmlns="http://www.w3.org/2000/svg">
<path d="M7.33342 2.16699V4.83366C7.33342 5.36409 7.1227 5.8728 6.74763 6.24787C6.37256 6.62295 5.86385 6.83366 5.33342 6.83366H2.66675C2.13632 6.83366 1.62761 6.62295 1.25253 6.24787C0.877462 5.8728 0.666748 5.36409 0.666748 4.83366V2.16699C0.666748 1.63656 0.877462 1.12785 1.25253 0.752779C1.62761 0.377706 2.13632 0.166992 2.66675 0.166992H5.33342C5.86385 0.166992 6.37256 0.377706 6.74763 0.752779C7.1227 1.12785 7.33342 1.63656 7.33342 2.16699ZM13.3334 0.166992H10.6667C10.1363 0.166992 9.62761 0.377706 9.25253 0.752779C8.87746 1.12785 8.66675 1.63656 8.66675 2.16699V4.83366C8.66675 5.36409 8.87746 5.8728 9.25253 6.24787C9.62761 6.62295 10.1363 6.83366 10.6667 6.83366H13.3334C13.8638 6.83366 14.3726 6.62295 14.7476 6.24787C15.1227 5.8728 15.3334 5.36409 15.3334 4.83366V2.16699C15.3334 1.63656 15.1227 1.12785 14.7476 0.752779C14.3726 0.377706 13.8638 0.166992 13.3334 0.166992ZM5.33342 8.16699H2.66675C2.13632 8.16699 1.62761 8.37771 1.25253 8.75278C0.877462 9.12785 0.666748 9.63656 0.666748 10.167V12.8337C0.666748 13.3641 0.877462 13.8728 1.25253 14.2479C1.62761 14.6229 2.13632 14.8337 2.66675 14.8337H5.33342C5.86385 14.8337 6.37256 14.6229 6.74763 14.2479C7.1227 13.8728 7.33342 13.3641 7.33342 12.8337V10.167C7.33342 9.63656 7.1227 9.12785 6.74763 8.75278C6.37256 8.37771 5.86385 8.16699 5.33342 8.16699ZM13.3334 8.16699H10.6667C10.1363 8.16699 9.62761 8.37771 9.25253 8.75278C8.87746 9.12785 8.66675 9.63656 8.66675 10.167V12.8337C8.66675 13.3641 8.87746 13.8728 9.25253 14.2479C9.62761 14.6229 10.1363 14.8337 10.6667 14.8337H13.3334C13.8638 14.8337 14.3726 14.6229 14.7476 14.2479C15.1227 13.8728 15.3334 13.3641 15.3334 12.8337V10.167C15.3334 9.63656 15.1227 9.12785 14.7476 8.75278C14.3726 8.37771 13.8638 8.16699 13.3334 8.16699Z" fill="white"/>
</svg>
