<svg width="13" height="15" viewBox="0 0 13 15" fill="none" xmlns="http://www.w3.org/2000/svg">
<path d="M8.11133 15H2.51562C1.22324 15 0.171875 13.9486 0.171875 12.6562V4.7168C0.171875 3.42442 1.22324 2.37305 2.51562 2.37305H8.11133C9.40371 2.37305 10.4551 3.42442 10.4551 4.7168V12.6562C10.4551 13.9486 9.40371 15 8.11133 15ZM2.51562 3.54492C1.86949 3.54492 1.34375 4.07066 1.34375 4.7168V12.6562C1.34375 13.3024 1.86949 13.8281 2.51562 13.8281H8.11133C8.75746 13.8281 9.2832 13.3024 9.2832 12.6562V4.7168C9.2832 4.07066 8.75746 3.54492 8.11133 3.54492H2.51562ZM12.7988 11.1914V2.34375C12.7988 1.05137 11.7475 0 10.4551 0H3.95117C3.62753 0 3.36523 0.262299 3.36523 0.585938C3.36523 0.909576 3.62753 1.17188 3.95117 1.17188H10.4551C11.1012 1.17188 11.627 1.69762 11.627 2.34375V11.1914C11.627 11.515 11.8893 11.7773 12.2129 11.7773C12.5365 11.7773 12.7988 11.515 12.7988 11.1914Z" fill="white"/>
</svg>
