<svg width="56" height="56" viewBox="0 0 56 56" fill="none" xmlns="http://www.w3.org/2000/svg">
<g filter="url(#filter0_d_2514_6680)">
<path d="M45 28C45 18.6102 37.3898 11 28 11C18.6102 11 11 18.6102 11 28C11 37.3898 18.6102 45 28 45C28.0996 45 28.1992 45 28.2988 44.9934V31.7652H24.6465V27.5086H28.2988V24.3742C28.2988 20.7418 30.5168 18.7629 33.7574 18.7629C35.3113 18.7629 36.6461 18.8758 37.0312 18.9289V22.7273H34.8C33.0402 22.7273 32.6949 23.5641 32.6949 24.7926V27.502H36.9117L36.3605 31.7586H32.6949V44.3426C39.8004 42.3039 45 35.7629 45 28Z" fill="white"/>
</g>
<defs>
<filter id="filter0_d_2514_6680" x="0" y="0" width="56" height="56" filterUnits="userSpaceOnUse" color-interpolation-filters="sRGB">
<feFlood flood-opacity="0" result="BackgroundImageFix"/>
<feColorMatrix in="SourceAlpha" type="matrix" values="0 0 0 0 0 0 0 0 0 0 0 0 0 0 0 0 0 0 127 0" result="hardAlpha"/>
<feOffset/>
<feGaussianBlur stdDeviation="5.5"/>
<feComposite in2="hardAlpha" operator="out"/>
<feColorMatrix type="matrix" values="0 0 0 0 0.0980392 0 0 0 0 0.635294 0 0 0 0 0.647059 0 0 0 1 0"/>
<feBlend mode="normal" in2="BackgroundImageFix" result="effect1_dropShadow_2514_6680"/>
<feBlend mode="normal" in="SourceGraphic" in2="effect1_dropShadow_2514_6680" result="shape"/>
</filter>
</defs>
</svg>
