<svg width="26" height="18" viewBox="0 0 26 18" fill="none" xmlns="http://www.w3.org/2000/svg">
<path d="M1.80664 3.89062H6.56581V5.41406H1.80664V3.89062Z" fill="#E18933"/>
<path d="M1.80664 12.585H6.56581V14.1084H1.80664V12.585Z" fill="#E18933"/>
<path d="M0 8.23828H6.56602V9.76172H0V8.23828Z" fill="#E18933"/>
<path d="M17.3501 0.349609C12.5805 0.349609 8.7002 4.22996 8.7002 8.99954C8.7002 13.7691 12.5805 17.6495 17.3501 17.6495C22.1197 17.6495 26 13.7691 26 8.99954C26 4.22996 22.1197 0.349609 17.3501 0.349609ZM17.3501 8.23782C18.6626 8.23782 19.7303 9.30554 19.7303 10.618C19.7303 11.664 19.0517 12.554 18.1118 12.8724V14.1104H16.5884V12.8724C15.6485 12.554 14.97 11.664 14.97 10.618H16.4934C16.4934 11.0904 16.8777 11.4747 17.3501 11.4747C17.8225 11.4747 18.2069 11.0904 18.2069 10.618C18.2069 10.1456 17.8225 9.76126 17.3501 9.76126C16.0377 9.76126 14.97 8.69353 14.97 7.38109C14.97 6.33504 15.6485 5.4451 16.5884 5.12665V3.88866H18.1118V5.12665C19.0517 5.4451 19.7303 6.33504 19.7303 7.38109H18.2069C18.2069 6.90867 17.8225 6.52436 17.3501 6.52436C16.8777 6.52436 16.4934 6.90867 16.4934 7.38109C16.4934 7.85351 16.8777 8.23782 17.3501 8.23782Z" fill="#E18933"/>
</svg>
