<svg width="16" height="16" viewBox="0 0 16 16" fill="none" xmlns="http://www.w3.org/2000/svg">
<path d="M12.8021 9.60091C12.7597 9.60091 12.7221 9.6121 12.6782 9.6137L10.2575 5.47188C10.7075 5.02554 11.0149 4.45549 11.1405 3.83407C11.2662 3.21266 11.2045 2.5679 10.9633 1.98162C10.7221 1.39534 10.3122 0.893985 9.78577 0.541172C9.2593 0.188359 8.63994 0 8.0063 0C7.37265 0 6.75329 0.188359 6.22682 0.541172C5.70035 0.893985 5.29051 1.39534 5.0493 1.98162C4.8081 2.5679 4.74642 3.21266 4.87208 3.83407C4.99774 4.45549 5.30508 5.02554 5.75509 5.47188L3.34161 9.6145C3.29604 9.61211 3.25447 9.60091 3.2089 9.60091C2.61035 9.59881 2.02323 9.76485 1.51432 10.0801C1.00542 10.3954 0.595178 10.8473 0.330259 11.3843C0.0653405 11.9214 -0.0436149 12.522 0.0157886 13.118C0.0751921 13.7139 0.300569 14.2812 0.66628 14.7553C1.03199 15.2294 1.52335 15.5913 2.08446 15.7998C2.64558 16.0083 3.25391 16.0551 3.84026 15.9347C4.42661 15.8144 4.96743 15.5318 5.4012 15.1191C5.83497 14.7064 6.14427 14.1802 6.29391 13.6004H9.71708C9.86749 14.1786 10.1769 14.703 10.6103 15.1141C11.0436 15.5251 11.5835 15.8064 12.1685 15.9259C12.7536 16.0454 13.3604 15.9983 13.9201 15.79C14.4798 15.5817 14.9699 15.2206 15.3347 14.7476C15.6996 14.2746 15.9245 13.7088 15.9841 13.1143C16.0436 12.5198 15.9354 11.9205 15.6716 11.3844C15.4078 10.8484 14.9991 10.3971 14.4919 10.0819C13.9846 9.76661 13.3992 9.59997 12.8021 9.60091ZM9.71708 12.0006H6.29391C6.09089 11.2141 5.59607 10.5345 4.91009 10.1L7.14291 6.26857C7.70509 6.44615 8.3083 6.44615 8.87048 6.26857L11.1089 10.0968C10.419 10.5302 9.92096 11.2114 9.71708 12.0006Z" fill="#E18933"/>
</svg>
